<svg xmlns="http://www.w3.org/2000/svg" xmlns:xlink="http://www.w3.org/1999/xlink" width="500" zoomAndPan="magnify" viewBox="0 0 375 374.999991" height="500" preserveAspectRatio="xMidYMid meet" version="1.0"><defs><g/><clipPath id="4aa2b7f309"><path d="M 0 181.585938 L 368.980469 181.585938 L 368.980469 235.824219 L 0 235.824219 Z M 0 181.585938 " clip-rule="nonzero"/></clipPath></defs><rect x="-37.5" width="450" fill="#ffffff" y="-37.499999" height="449.999989" fill-opacity="1"/><rect x="-37.5" width="450" fill="#07363c" y="-37.499999" height="449.999989" fill-opacity="1"/><g fill="#f48d3f" fill-opacity="1"><g transform="translate(8.998777, 262.297124)"><g><path d="M 216.859375 -0.8125 C 217.398438 -0.8125 217.671875 -0.539062 217.671875 0 C 217.671875 0.539062 217.398438 0.8125 216.859375 0.8125 L 164.53125 0.8125 C 163.988281 0.8125 163.71875 0.539062 163.71875 0 C 163.71875 -0.539062 163.988281 -0.8125 164.53125 -0.8125 C 167.570312 -0.8125 170.207031 -1.925781 172.4375 -4.15625 C 174.675781 -6.394531 175.796875 -9.035156 175.796875 -12.078125 L 175.796875 -181.96875 L 116.484375 -33.28125 L 112.453125 -23.625 L 101.453125 4.5625 C 101.453125 4.382812 101.363281 4.382812 101.1875 4.5625 C 101.1875 4.738281 101.1875 4.828125 101.1875 4.828125 C 101.1875 4.828125 101.140625 4.828125 101.046875 4.828125 C 100.960938 4.828125 100.921875 4.828125 100.921875 4.828125 C 100.921875 5.003906 100.921875 5.09375 100.921875 5.09375 C 100.734375 5.09375 100.734375 5.09375 100.921875 5.09375 C 100.921875 5.09375 100.828125 5.09375 100.640625 5.09375 C 100.828125 5.09375 100.828125 5.09375 100.640625 5.09375 C 100.460938 5.09375 100.375 5.09375 100.375 5.09375 C 100.375 5.09375 100.285156 5.09375 100.109375 5.09375 C 99.929688 4.914062 99.84375 4.828125 99.84375 4.828125 C 99.664062 4.648438 99.578125 4.5625 99.578125 4.5625 L 28.1875 -174.453125 C 27.46875 -176.066406 26.484375 -177.675781 25.234375 -179.28125 L 25.234375 -12.078125 C 25.234375 -9.035156 26.304688 -6.394531 28.453125 -4.15625 C 30.597656 -1.925781 33.191406 -0.8125 36.234375 -0.8125 C 36.953125 -0.8125 37.3125 -0.539062 37.3125 0 C 37.3125 0.539062 36.953125 0.8125 36.234375 0.8125 L 24.421875 0.8125 C 24.242188 0.8125 24.15625 0.8125 24.15625 0.8125 C 24.332031 0.8125 24.332031 0.8125 24.15625 0.8125 L 12.078125 0.8125 C 11.535156 0.8125 11.265625 0.539062 11.265625 0 C 11.265625 -0.539062 11.535156 -0.8125 12.078125 -0.8125 C 15.296875 -0.8125 17.976562 -1.925781 20.125 -4.15625 C 22.269531 -6.394531 23.34375 -9.035156 23.34375 -12.078125 L 23.34375 -181.15625 C 19.769531 -184.195312 16.101562 -185.71875 12.34375 -185.71875 C 11.625 -185.71875 11.265625 -186.078125 11.265625 -186.796875 C 11.265625 -187.335938 11.625 -187.609375 12.34375 -187.609375 L 54.484375 -187.609375 C 55.015625 -187.609375 55.28125 -187.425781 55.28125 -187.0625 L 115.671875 -36.234375 L 175.796875 -187.0625 C 175.972656 -187.425781 176.238281 -187.609375 176.59375 -187.609375 L 216.859375 -187.609375 C 217.398438 -187.609375 217.671875 -187.335938 217.671875 -186.796875 C 217.671875 -186.078125 217.398438 -185.71875 216.859375 -185.71875 C 213.816406 -185.71875 211.175781 -184.644531 208.9375 -182.5 C 206.707031 -180.351562 205.59375 -177.757812 205.59375 -174.71875 L 205.59375 -12.078125 C 205.59375 -9.035156 206.707031 -6.394531 208.9375 -4.15625 C 211.175781 -1.925781 213.816406 -0.8125 216.859375 -0.8125 Z M 216.859375 -0.8125 "/></g></g></g><g fill="#f48d3f" fill-opacity="1"><g transform="translate(175.018448, 262.297124)"><g><path d="M 179.015625 -0.8125 C 179.554688 -0.8125 179.828125 -0.539062 179.828125 0 C 179.828125 0.71875 179.554688 1.078125 179.015625 1.078125 L 124.53125 1.078125 C 124 1.078125 123.734375 0.71875 123.734375 0 C 123.734375 -0.539062 124 -0.8125 124.53125 -0.8125 C 127.394531 -0.8125 129.453125 -1.789062 130.703125 -3.75 C 132.140625 -5.90625 132.226562 -8.59375 130.96875 -11.8125 L 113.265625 -56.625 L 38.109375 -56.625 L 20.125 -11.546875 C 18.875 -8.503906 18.960938 -5.90625 20.390625 -3.75 C 21.828125 -1.789062 23.890625 -0.8125 26.578125 -0.8125 C 27.285156 -0.8125 27.640625 -0.539062 27.640625 0 C 27.640625 0.539062 27.285156 0.8125 26.578125 0.8125 L 2.421875 0.8125 C 1.878906 0.8125 1.609375 0.539062 1.609375 0 C 1.609375 -0.539062 1.878906 -0.8125 2.421875 -0.8125 C 5.640625 -0.8125 8.8125 -1.925781 11.9375 -4.15625 C 15.070312 -6.394531 17.265625 -9.125 18.515625 -12.34375 L 36.765625 -57.703125 C 36.765625 -57.878906 36.765625 -57.96875 36.765625 -57.96875 C 36.941406 -58.144531 36.941406 -58.144531 36.765625 -57.96875 C 36.765625 -57.96875 36.851562 -58.054688 37.03125 -58.234375 C 37.21875 -58.234375 37.3125 -58.234375 37.3125 -58.234375 C 37.3125 -58.234375 37.398438 -58.234375 37.578125 -58.234375 L 112.453125 -58.234375 L 74.875 -152.71875 C 74.695312 -152.894531 74.695312 -153.070312 74.875 -153.25 L 89.90625 -191.09375 C 89.90625 -191.09375 89.90625 -191.179688 89.90625 -191.359375 C 89.90625 -191.359375 89.992188 -191.359375 90.171875 -191.359375 C 90.171875 -191.535156 90.171875 -191.625 90.171875 -191.625 C 90.171875 -191.625 90.265625 -191.625 90.453125 -191.625 C 90.453125 -191.625 90.492188 -191.625 90.578125 -191.625 C 90.671875 -191.625 90.71875 -191.625 90.71875 -191.625 C 90.894531 -191.8125 90.894531 -191.8125 90.71875 -191.625 C 90.71875 -191.8125 90.804688 -191.90625 90.984375 -191.90625 C 90.984375 -191.90625 90.984375 -191.8125 90.984375 -191.625 C 91.160156 -191.625 91.25 -191.625 91.25 -191.625 C 91.425781 -191.445312 91.515625 -191.359375 91.515625 -191.359375 C 91.515625 -191.359375 91.515625 -191.3125 91.515625 -191.21875 C 91.515625 -191.132812 91.515625 -191.09375 91.515625 -191.09375 L 163.1875 -12.34375 C 164.4375 -9.125 166.582031 -6.394531 169.625 -4.15625 C 172.664062 -1.925781 175.796875 -0.8125 179.015625 -0.8125 Z M 179.015625 -0.8125 "/></g></g></g><g clip-path="url(#4aa2b7f309)"><path fill="#07363c" d="M 368.980469 181.585938 L 368.980469 235.824219 L -6.429688 235.824219 L -6.429688 181.585938 Z M 368.980469 181.585938 " fill-opacity="1" fill-rule="nonzero"/></g><g fill="#f48d3f" fill-opacity="1"><g transform="translate(51.906532, 222.059036)"><g><path d="M 1.015625 6.625 C 0.535156 6.625 0.238281 6.363281 0.125 5.84375 C 0.0820312 5.6875 0.0507812 5.535156 0.03125 5.390625 C 0.0078125 5.253906 0 5.109375 0 4.953125 C 0 4.796875 0 4.65625 0 4.53125 C 0 4.414062 0 4.28125 0 4.125 C -0.0390625 2.726562 0.046875 1.382812 0.265625 0.09375 C 0.484375 -1.195312 0.734375 -2.503906 1.015625 -3.828125 C 1.566406 -6.523438 2.25 -9.164062 3.0625 -11.75 C 3.882812 -14.34375 4.710938 -16.953125 5.546875 -19.578125 L 9.3125 -31.515625 C 9.394531 -31.679688 9.460938 -31.851562 9.515625 -32.03125 C 9.578125 -32.207031 9.628906 -32.375 9.671875 -32.53125 C 9.785156 -32.851562 9.945312 -33.175781 10.15625 -33.5 C 10.382812 -33.769531 10.617188 -33.90625 10.859375 -33.90625 C 11.023438 -33.90625 11.128906 -33.890625 11.171875 -33.859375 C 11.566406 -33.617188 11.664062 -33.28125 11.46875 -32.84375 C 11.226562 -32.238281 11.003906 -31.640625 10.796875 -31.046875 C 10.597656 -30.453125 10.421875 -29.851562 10.265625 -29.25 C 10.109375 -28.613281 9.929688 -28 9.734375 -27.40625 C 9.535156 -26.8125 9.335938 -26.191406 9.140625 -25.546875 C 8.734375 -24.234375 8.320312 -22.921875 7.90625 -21.609375 C 7.488281 -20.296875 7.0625 -19.003906 6.625 -17.734375 C 6.1875 -16.460938 5.757812 -15.164062 5.34375 -13.84375 C 4.925781 -12.53125 4.519531 -11.21875 4.125 -9.90625 C 3.007812 -6.40625 2.210938 -2.722656 1.734375 1.140625 C 1.691406 1.335938 1.660156 1.515625 1.640625 1.671875 C 1.617188 1.828125 1.609375 1.96875 1.609375 2.09375 C 1.609375 2.132812 1.609375 2.191406 1.609375 2.265625 C 1.609375 2.347656 1.609375 2.425781 1.609375 2.5 C 1.566406 2.625 1.644531 2.6875 1.84375 2.6875 C 2.050781 2.6875 2.171875 2.625 2.203125 2.5 C 2.285156 2.34375 2.347656 2.242188 2.390625 2.203125 C 2.460938 2.046875 2.53125 1.894531 2.59375 1.75 C 2.65625 1.613281 2.726562 1.46875 2.8125 1.3125 C 2.882812 1.15625 2.953125 1.003906 3.015625 0.859375 C 3.078125 0.722656 3.128906 0.578125 3.171875 0.421875 C 3.484375 -0.335938 3.816406 -1.082031 4.171875 -1.8125 C 4.535156 -2.550781 4.875 -3.300781 5.1875 -4.0625 C 5.507812 -4.8125 5.847656 -5.546875 6.203125 -6.265625 C 6.566406 -6.984375 6.90625 -7.722656 7.21875 -8.484375 C 8.332031 -10.828125 9.632812 -13.300781 11.125 -15.90625 C 12.625 -18.519531 14.296875 -20.988281 16.140625 -23.3125 C 17.992188 -25.644531 20 -27.523438 22.15625 -28.953125 C 22.226562 -28.992188 22.3125 -29.035156 22.40625 -29.078125 C 22.507812 -29.117188 22.601562 -29.15625 22.6875 -29.1875 C 22.769531 -29.226562 22.859375 -29.257812 22.953125 -29.28125 C 23.054688 -29.300781 23.144531 -29.332031 23.21875 -29.375 C 23.65625 -29.375 24.023438 -29.289062 24.328125 -29.125 C 24.628906 -28.96875 24.835938 -28.65625 24.953125 -28.1875 C 25.035156 -27.738281 25.066406 -27.273438 25.046875 -26.796875 C 25.023438 -26.328125 24.972656 -25.875 24.890625 -25.4375 C 24.691406 -24.394531 24.441406 -23.359375 24.140625 -22.328125 C 23.847656 -21.296875 23.539062 -20.257812 23.21875 -19.21875 C 22.78125 -17.90625 22.375 -16.601562 22 -15.3125 C 21.625 -14.019531 21.273438 -12.695312 20.953125 -11.34375 C 20.796875 -10.707031 20.65625 -10.070312 20.53125 -9.4375 C 20.414062 -8.800781 20.359375 -8.144531 20.359375 -7.46875 C 20.359375 -7.144531 20.4375 -6.925781 20.59375 -6.8125 C 20.632812 -6.769531 20.71875 -6.75 20.84375 -6.75 C 21.039062 -6.75 21.195312 -6.847656 21.3125 -7.046875 C 21.632812 -7.398438 21.953125 -7.753906 22.265625 -8.109375 C 22.585938 -8.472656 22.890625 -8.851562 23.171875 -9.25 C 23.921875 -10.25 24.65625 -11.210938 25.375 -12.140625 C 26.09375 -13.078125 26.867188 -14.003906 27.703125 -14.921875 C 28.335938 -15.722656 29.113281 -16.519531 30.03125 -17.3125 C 30.550781 -17.789062 31.128906 -18.050781 31.765625 -18.09375 C 32.710938 -18.09375 33.351562 -17.789062 33.6875 -17.1875 C 34.03125 -16.59375 34.285156 -15.898438 34.453125 -15.109375 L 35.171875 -9.84375 C 35.285156 -9.289062 35.429688 -8.625 35.609375 -7.84375 C 35.785156 -7.070312 36.050781 -6.394531 36.40625 -5.8125 C 36.769531 -5.238281 37.269531 -4.953125 37.90625 -4.953125 C 38.46875 -4.953125 39.066406 -5.210938 39.703125 -5.734375 C 39.859375 -5.847656 40.09375 -6.082031 40.40625 -6.4375 C 40.726562 -6.800781 41.109375 -7.300781 41.546875 -7.9375 C 41.984375 -8.570312 42.5 -9.296875 43.09375 -10.109375 C 43.695312 -10.929688 44.378906 -11.84375 45.140625 -12.84375 C 45.335938 -13.039062 45.492188 -13.15625 45.609375 -13.1875 C 45.648438 -13.226562 45.75 -13.25 45.90625 -13.25 C 46.101562 -13.25 46.242188 -13.210938 46.328125 -13.140625 C 46.566406 -13.015625 46.664062 -12.8125 46.625 -12.53125 C 46.507812 -12.175781 46.140625 -11.5625 45.515625 -10.6875 C 44.898438 -9.8125 44.191406 -8.875 43.390625 -7.875 C 42.597656 -6.882812 41.84375 -6.007812 41.125 -5.25 C 40.414062 -4.5 39.898438 -4.023438 39.578125 -3.828125 C 38.828125 -3.503906 38.234375 -3.34375 37.796875 -3.34375 C 36.921875 -3.34375 36.144531 -3.789062 35.46875 -4.6875 C 34.789062 -5.582031 34.351562 -6.445312 34.15625 -7.28125 C 34.070312 -7.675781 34 -8.050781 33.9375 -8.40625 C 33.882812 -8.769531 33.816406 -9.148438 33.734375 -9.546875 C 33.691406 -9.910156 33.640625 -10.269531 33.578125 -10.625 C 33.523438 -10.988281 33.457031 -11.347656 33.375 -11.703125 C 33.332031 -11.984375 33.289062 -12.25 33.25 -12.5 C 33.207031 -12.757812 33.171875 -13.03125 33.140625 -13.3125 C 33.097656 -13.550781 33.054688 -13.789062 33.015625 -14.03125 C 32.972656 -14.269531 32.929688 -14.53125 32.890625 -14.8125 C 32.816406 -15.082031 32.71875 -15.425781 32.59375 -15.84375 C 32.476562 -16.269531 32.238281 -16.484375 31.875 -16.484375 C 31.71875 -16.484375 31.484375 -16.378906 31.171875 -16.171875 C 30.890625 -16.015625 30.609375 -15.796875 30.328125 -15.515625 C 30.085938 -15.242188 29.828125 -14.988281 29.546875 -14.75 C 27.878906 -12.914062 26.328125 -10.984375 24.890625 -8.953125 C 24.617188 -8.554688 24.3125 -8.160156 23.96875 -7.765625 C 23.632812 -7.367188 23.304688 -6.945312 22.984375 -6.5 C 22.460938 -5.863281 21.925781 -5.390625 21.375 -5.078125 C 21.019531 -4.835938 20.660156 -4.71875 20.296875 -4.71875 C 19.546875 -4.71875 19.085938 -5.210938 18.921875 -6.203125 C 18.847656 -6.523438 18.828125 -6.765625 18.859375 -6.921875 C 18.859375 -7.242188 18.84375 -7.460938 18.8125 -7.578125 C 18.882812 -8.617188 19.007812 -9.601562 19.1875 -10.53125 C 19.375 -11.46875 19.585938 -12.394531 19.828125 -13.3125 C 20.179688 -14.582031 20.554688 -15.863281 20.953125 -17.15625 C 21.347656 -18.457031 21.75 -19.742188 22.15625 -21.015625 C 22.394531 -21.804688 22.625 -22.609375 22.84375 -23.421875 C 23.0625 -24.242188 23.226562 -25.070312 23.34375 -25.90625 C 23.425781 -26.144531 23.46875 -26.363281 23.46875 -26.5625 C 23.46875 -26.6875 23.46875 -26.804688 23.46875 -26.921875 C 23.46875 -27.046875 23.46875 -27.164062 23.46875 -27.28125 C 23.46875 -27.4375 23.367188 -27.515625 23.171875 -27.515625 L 23.046875 -27.515625 C 22.960938 -27.484375 22.867188 -27.445312 22.765625 -27.40625 C 22.671875 -27.363281 22.585938 -27.320312 22.515625 -27.28125 C 22.429688 -27.238281 22.347656 -27.1875 22.265625 -27.125 C 22.191406 -27.070312 22.113281 -27.023438 22.03125 -26.984375 C 20.351562 -25.710938 18.75 -24.109375 17.21875 -22.171875 C 15.6875 -20.242188 14.285156 -18.210938 13.015625 -16.078125 C 11.742188 -13.953125 10.648438 -11.9375 9.734375 -10.03125 C 9.335938 -9.195312 8.945312 -8.359375 8.5625 -7.515625 C 8.1875 -6.679688 7.800781 -5.847656 7.40625 -5.015625 C 7.007812 -4.140625 6.609375 -3.28125 6.203125 -2.4375 C 5.804688 -1.601562 5.410156 -0.75 5.015625 0.125 C 4.859375 0.519531 4.6875 0.894531 4.5 1.25 C 4.320312 1.613281 4.15625 1.992188 4 2.390625 C 3.644531 3.140625 3.265625 3.894531 2.859375 4.65625 C 2.585938 5.25 2.234375 5.785156 1.796875 6.265625 C 1.554688 6.503906 1.296875 6.625 1.015625 6.625 Z M 1.015625 6.625 "/></g></g></g><g fill="#f48d3f" fill-opacity="1"><g transform="translate(95.543151, 222.059036)"><g><path d="M 2.8125 -2.5 C 1.175781 -2.5 0.160156 -3.238281 -0.234375 -4.71875 C -0.359375 -5.03125 -0.457031 -5.363281 -0.53125 -5.71875 C -0.613281 -6.082031 -0.632812 -6.425781 -0.59375 -6.75 C -0.632812 -7.257812 -0.601562 -7.734375 -0.5 -8.171875 C -0.40625 -8.617188 -0.296875 -9.0625 -0.171875 -9.5 C 0.179688 -10.445312 0.664062 -11.46875 1.28125 -12.5625 C 1.894531 -13.65625 2.628906 -14.617188 3.484375 -15.453125 C 4.347656 -16.296875 5.296875 -16.796875 6.328125 -16.953125 C 6.441406 -16.953125 6.519531 -16.972656 6.5625 -17.015625 C 6.601562 -17.015625 6.644531 -17.015625 6.6875 -17.015625 C 6.726562 -17.015625 6.769531 -17.015625 6.8125 -17.015625 C 7.40625 -17.015625 7.867188 -16.816406 8.203125 -16.421875 C 8.546875 -16.023438 8.675781 -15.488281 8.59375 -14.8125 C 8.4375 -13.851562 7.96875 -12.863281 7.1875 -11.84375 C 6.414062 -10.832031 5.507812 -9.976562 4.46875 -9.28125 C 3.4375 -8.582031 2.445312 -8.175781 1.5 -8.0625 C 1.21875 -7.976562 1.054688 -7.796875 1.015625 -7.515625 C 0.859375 -6.878906 0.914062 -6.1875 1.1875 -5.4375 C 1.3125 -4.757812 1.539062 -4.359375 1.875 -4.234375 C 2.21875 -4.117188 2.664062 -4.0625 3.21875 -4.0625 C 4.414062 -4.300781 5.640625 -4.828125 6.890625 -5.640625 C 8.148438 -6.453125 9.21875 -7.257812 10.09375 -8.0625 C 10.445312 -8.375 10.800781 -8.707031 11.15625 -9.0625 C 11.519531 -9.425781 11.878906 -9.769531 12.234375 -10.09375 C 12.554688 -10.40625 12.894531 -10.726562 13.25 -11.0625 C 13.613281 -11.40625 13.972656 -11.738281 14.328125 -12.0625 C 14.410156 -12.132812 14.507812 -12.222656 14.625 -12.328125 C 14.75 -12.429688 14.847656 -12.519531 14.921875 -12.59375 C 15.003906 -12.675781 15.09375 -12.765625 15.1875 -12.859375 C 15.289062 -12.960938 15.382812 -13.054688 15.46875 -13.140625 C 15.664062 -13.253906 15.820312 -13.3125 15.9375 -13.3125 C 16.09375 -13.3125 16.234375 -13.253906 16.359375 -13.140625 C 16.679688 -12.859375 16.738281 -12.554688 16.53125 -12.234375 C 16.5 -12.117188 16.34375 -11.921875 16.0625 -11.640625 C 15.34375 -10.878906 14.445312 -9.984375 13.375 -8.953125 C 12.300781 -7.921875 11.144531 -6.914062 9.90625 -5.9375 C 8.675781 -4.96875 7.441406 -4.148438 6.203125 -3.484375 C 4.972656 -2.828125 3.84375 -2.5 2.8125 -2.5 Z M 2.265625 -9.84375 C 2.785156 -10.125 3.410156 -10.539062 4.140625 -11.09375 C 4.878906 -11.65625 5.535156 -12.265625 6.109375 -12.921875 C 6.691406 -13.578125 6.984375 -14.222656 6.984375 -14.859375 C 6.941406 -15.265625 6.765625 -15.425781 6.453125 -15.34375 C 5.816406 -15.257812 5.175781 -14.921875 4.53125 -14.328125 C 3.894531 -13.734375 3.335938 -13.054688 2.859375 -12.296875 C 2.390625 -11.546875 2.035156 -10.847656 1.796875 -10.203125 C 1.796875 -10.003906 1.832031 -9.90625 1.90625 -9.90625 C 2.101562 -9.832031 2.222656 -9.8125 2.265625 -9.84375 Z M 2.265625 -9.84375 "/></g></g></g><g fill="#f48d3f" fill-opacity="1"><g transform="translate(109.153483, 222.059036)"><g><path d="M -0.171875 1.015625 C -0.210938 1.015625 -0.242188 1.015625 -0.265625 1.015625 C -0.285156 1.015625 -0.316406 1.015625 -0.359375 1.015625 C -0.359375 0.972656 -0.398438 0.953125 -0.484375 0.953125 C -0.878906 0.835938 -1.113281 0.539062 -1.1875 0.0625 C -1.1875 -0.0625 -1.1875 -0.179688 -1.1875 -0.296875 C -1.1875 -0.421875 -1.207031 -0.5625 -1.25 -0.71875 C -1.25 -0.832031 -1.25 -0.945312 -1.25 -1.0625 C -1.25 -1.1875 -1.226562 -1.332031 -1.1875 -1.5 C -0.789062 -4.164062 -0.195312 -6.570312 0.59375 -8.71875 C 1.394531 -10.863281 2.3125 -13.128906 3.34375 -15.515625 C 3.425781 -15.679688 3.503906 -15.832031 3.578125 -15.96875 C 3.660156 -16.101562 3.742188 -16.234375 3.828125 -16.359375 C 3.941406 -16.472656 4.117188 -16.53125 4.359375 -16.53125 L 4.53125 -16.53125 C 4.851562 -16.414062 4.992188 -16.21875 4.953125 -15.9375 C 4.953125 -15.582031 4.851562 -15.144531 4.65625 -14.625 C 4.414062 -14.03125 4.164062 -13.429688 3.90625 -12.828125 C 3.644531 -12.234375 3.378906 -11.640625 3.109375 -11.046875 C 2.703125 -10.128906 2.335938 -9.210938 2.015625 -8.296875 C 1.703125 -7.378906 1.425781 -6.460938 1.1875 -5.546875 C 1.113281 -5.234375 1.046875 -4.914062 0.984375 -4.59375 C 0.921875 -4.28125 0.972656 -3.960938 1.140625 -3.640625 L 1.078125 -3.640625 L 1.140625 -3.578125 L 3.46875 -8.296875 C 3.9375 -9.210938 4.53125 -10.140625 5.25 -11.078125 C 5.96875 -12.015625 6.785156 -12.757812 7.703125 -13.3125 C 7.941406 -13.4375 8.179688 -13.5 8.421875 -13.5 C 8.898438 -13.5 9.273438 -13.257812 9.546875 -12.78125 C 9.628906 -12.695312 9.695312 -12.59375 9.75 -12.46875 C 9.8125 -12.351562 9.863281 -12.238281 9.90625 -12.125 C 9.945312 -11.882812 10.046875 -11.644531 10.203125 -11.40625 C 10.640625 -10.6875 11.117188 -10.328125 11.640625 -10.328125 C 11.992188 -10.328125 12.429688 -10.484375 12.953125 -10.796875 C 13.472656 -11.117188 14 -11.476562 14.53125 -11.875 C 15.070312 -12.28125 15.503906 -12.617188 15.828125 -12.890625 C 16.054688 -13.128906 16.3125 -13.332031 16.59375 -13.5 C 16.632812 -13.53125 16.71875 -13.546875 16.84375 -13.546875 C 17 -13.546875 17.15625 -13.488281 17.3125 -13.375 C 17.550781 -13.132812 17.613281 -12.894531 17.5 -12.65625 C 17.332031 -12.332031 17.148438 -12.070312 16.953125 -11.875 C 16.597656 -11.519531 16.101562 -11.09375 15.46875 -10.59375 C 14.832031 -10.09375 14.175781 -9.664062 13.5 -9.3125 C 12.820312 -8.957031 12.203125 -8.78125 11.640625 -8.78125 C 10.648438 -8.78125 9.832031 -9.21875 9.1875 -10.09375 C 9.113281 -10.207031 9.035156 -10.320312 8.953125 -10.4375 C 8.878906 -10.5625 8.800781 -10.6875 8.71875 -10.8125 C 8.675781 -10.925781 8.613281 -11.039062 8.53125 -11.15625 C 8.457031 -11.28125 8.378906 -11.398438 8.296875 -11.515625 C 8.015625 -11.515625 7.804688 -11.457031 7.671875 -11.34375 C 7.535156 -11.226562 7.40625 -11.085938 7.28125 -10.921875 C 6.726562 -10.367188 6.234375 -9.765625 5.796875 -9.109375 C 5.359375 -8.453125 4.957031 -7.785156 4.59375 -7.109375 C 4.351562 -6.628906 4.113281 -6.148438 3.875 -5.671875 C 3.632812 -5.191406 3.414062 -4.710938 3.21875 -4.234375 C 2.976562 -3.753906 2.738281 -3.273438 2.5 -2.796875 C 2.269531 -2.328125 2.015625 -1.832031 1.734375 -1.3125 C 1.578125 -0.988281 1.40625 -0.675781 1.21875 -0.375 C 1.039062 -0.0820312 0.851562 0.21875 0.65625 0.53125 C 0.457031 0.851562 0.179688 1.015625 -0.171875 1.015625 Z M -0.171875 1.015625 "/></g></g></g><g fill="#f48d3f" fill-opacity="1"><g transform="translate(123.718911, 222.059036)"><g><path d="M 3.765625 -2.453125 C 2.085938 -2.453125 0.921875 -2.898438 0.265625 -3.796875 C -0.390625 -4.691406 -0.675781 -5.773438 -0.59375 -7.046875 C -0.59375 -7.242188 -0.582031 -7.410156 -0.5625 -7.546875 C -0.539062 -7.691406 -0.515625 -7.84375 -0.484375 -8 C -0.046875 -9.664062 0.578125 -11.195312 1.390625 -12.59375 C 2.210938 -13.988281 3.28125 -15.265625 4.59375 -16.421875 C 5.3125 -17.015625 6.050781 -17.3125 6.8125 -17.3125 C 7.363281 -17.3125 7.925781 -17.148438 8.5 -16.828125 C 9.082031 -16.515625 9.414062 -16.039062 9.5 -15.40625 C 9.726562 -13.894531 9.328125 -12.5 8.296875 -11.21875 C 8.210938 -11.101562 8.054688 -11.003906 7.828125 -10.921875 C 7.785156 -10.921875 7.765625 -10.921875 7.765625 -10.921875 C 7.765625 -10.878906 7.742188 -10.859375 7.703125 -10.859375 C 7.421875 -10.859375 7.28125 -10.976562 7.28125 -11.21875 C 7.238281 -11.414062 7.28125 -11.617188 7.40625 -11.828125 C 7.445312 -11.898438 7.484375 -11.984375 7.515625 -12.078125 C 7.554688 -12.179688 7.597656 -12.273438 7.640625 -12.359375 C 7.835938 -12.679688 7.984375 -13.03125 8.078125 -13.40625 C 8.179688 -13.78125 8.195312 -14.164062 8.125 -14.5625 C 8.039062 -15.363281 7.660156 -15.765625 6.984375 -15.765625 C 6.660156 -15.765625 6.347656 -15.671875 6.046875 -15.484375 C 5.753906 -15.304688 5.507812 -15.117188 5.3125 -14.921875 C 3.207031 -13.054688 1.796875 -10.691406 1.078125 -7.828125 C 0.398438 -5.234375 1.296875 -3.9375 3.765625 -3.9375 C 3.921875 -3.9375 4.039062 -3.957031 4.125 -4 C 4.195312 -4 4.265625 -4 4.328125 -4 C 4.390625 -4 4.441406 -4 4.484375 -4 C 5.867188 -4.195312 7.257812 -4.660156 8.65625 -5.390625 C 10.050781 -6.128906 11.304688 -6.878906 12.421875 -7.640625 C 12.929688 -8.035156 13.4375 -8.441406 13.9375 -8.859375 C 14.4375 -9.285156 14.945312 -9.695312 15.46875 -10.09375 C 15.976562 -10.488281 16.484375 -10.882812 16.984375 -11.28125 C 17.484375 -11.675781 17.992188 -12.078125 18.515625 -12.484375 C 18.585938 -12.554688 18.671875 -12.632812 18.765625 -12.71875 C 18.867188 -12.800781 18.960938 -12.878906 19.046875 -12.953125 C 19.128906 -13.035156 19.21875 -13.101562 19.3125 -13.15625 C 19.414062 -13.21875 19.503906 -13.269531 19.578125 -13.3125 C 19.816406 -13.394531 19.9375 -13.4375 19.9375 -13.4375 C 20.175781 -13.4375 20.359375 -13.335938 20.484375 -13.140625 C 20.679688 -12.898438 20.679688 -12.597656 20.484375 -12.234375 C 20.441406 -12.160156 20.359375 -12.0625 20.234375 -11.9375 C 20.191406 -11.894531 20.140625 -11.84375 20.078125 -11.78125 C 20.023438 -11.726562 19.976562 -11.679688 19.9375 -11.640625 C 18.625 -10.523438 17.300781 -9.429688 15.96875 -8.359375 C 14.632812 -7.285156 13.234375 -6.269531 11.765625 -5.3125 C 10.523438 -4.519531 9.285156 -3.882812 8.046875 -3.40625 C 6.816406 -2.925781 5.488281 -2.609375 4.0625 -2.453125 Z M 3.765625 -2.453125 "/></g></g></g><g fill="#f48d3f" fill-opacity="1"><g transform="translate(141.388459, 222.059036)"><g><path d="M 8.0625 11.828125 C 7.539062 11.828125 7.125 11.523438 6.8125 10.921875 C 6.289062 10.003906 6.207031 9.109375 6.5625 8.234375 C 7.039062 6.804688 7.640625 5.441406 8.359375 4.140625 C 9.078125 2.847656 9.851562 1.566406 10.6875 0.296875 C 11.082031 -0.335938 11.359375 -1.050781 11.515625 -1.84375 C 11.597656 -2.519531 11.675781 -3.1875 11.75 -3.84375 C 11.832031 -4.507812 11.914062 -5.160156 12 -5.796875 C 12.082031 -6.472656 12.171875 -7.140625 12.265625 -7.796875 C 12.367188 -8.453125 12.457031 -9.117188 12.53125 -9.796875 L 13.078125 -14.03125 C 13.117188 -14.113281 13.140625 -14.3125 13.140625 -14.625 C 13.140625 -14.78125 13.078125 -14.859375 12.953125 -14.859375 C 12.835938 -14.941406 12.71875 -14.925781 12.59375 -14.8125 L 11.34375 -13.3125 C 10.34375 -12.082031 9.304688 -10.945312 8.234375 -9.90625 C 7.160156 -8.875 5.96875 -7.921875 4.65625 -7.046875 C 4.414062 -6.890625 4.175781 -6.78125 3.9375 -6.71875 C 3.695312 -6.65625 3.457031 -6.601562 3.21875 -6.5625 C 2.425781 -6.5625 1.890625 -6.789062 1.609375 -7.25 C 1.328125 -7.707031 1.1875 -8.296875 1.1875 -9.015625 C 1.1875 -10.328125 1.375 -11.707031 1.75 -13.15625 C 2.132812 -14.613281 2.765625 -15.859375 3.640625 -16.890625 C 3.835938 -17.085938 4.054688 -17.1875 4.296875 -17.1875 C 4.335938 -17.1875 4.382812 -17.175781 4.4375 -17.15625 C 4.5 -17.144531 4.59375 -17.117188 4.71875 -17.078125 C 5.113281 -16.835938 5.15625 -16.5 4.84375 -16.0625 C 4.28125 -15.300781 3.867188 -14.492188 3.609375 -13.640625 C 3.347656 -12.785156 3.117188 -11.898438 2.921875 -10.984375 C 2.847656 -10.660156 2.800781 -10.335938 2.78125 -10.015625 C 2.757812 -9.703125 2.75 -9.390625 2.75 -9.078125 C 2.664062 -8.515625 2.84375 -8.234375 3.28125 -8.234375 C 3.4375 -8.234375 3.632812 -8.296875 3.875 -8.421875 C 4.039062 -8.492188 4.191406 -8.585938 4.328125 -8.703125 C 4.460938 -8.828125 4.613281 -8.929688 4.78125 -9.015625 C 4.9375 -9.097656 5.082031 -9.195312 5.21875 -9.3125 C 5.363281 -9.4375 5.515625 -9.535156 5.671875 -9.609375 C 6.429688 -10.171875 7.140625 -10.804688 7.796875 -11.515625 C 8.453125 -12.234375 9.097656 -12.992188 9.734375 -13.796875 C 10.015625 -14.109375 10.289062 -14.441406 10.5625 -14.796875 C 10.84375 -15.160156 11.125 -15.519531 11.40625 -15.875 C 11.6875 -16.195312 11.953125 -16.535156 12.203125 -16.890625 C 12.460938 -17.253906 12.734375 -17.59375 13.015625 -17.90625 C 13.097656 -17.988281 13.1875 -18.085938 13.28125 -18.203125 C 13.382812 -18.328125 13.472656 -18.429688 13.546875 -18.515625 C 13.742188 -18.710938 13.960938 -18.8125 14.203125 -18.8125 C 14.242188 -18.8125 14.265625 -18.8125 14.265625 -18.8125 C 14.265625 -18.8125 14.285156 -18.8125 14.328125 -18.8125 C 14.367188 -18.769531 14.410156 -18.75 14.453125 -18.75 C 14.960938 -18.625 15.140625 -18.066406 14.984375 -17.078125 C 14.898438 -16.316406 14.804688 -15.554688 14.703125 -14.796875 C 14.609375 -14.046875 14.523438 -13.289062 14.453125 -12.53125 C 14.367188 -11.78125 14.265625 -11.015625 14.140625 -10.234375 C 14.023438 -9.460938 13.925781 -8.695312 13.84375 -7.9375 L 13.5 -4.484375 C 13.53125 -4.484375 13.664062 -4.441406 13.90625 -4.359375 C 14.46875 -5.078125 15.035156 -5.789062 15.609375 -6.5 C 16.191406 -7.21875 16.757812 -7.9375 17.3125 -8.65625 C 17.875 -9.332031 18.441406 -10.03125 19.015625 -10.75 C 19.585938 -11.46875 20.195312 -12.164062 20.84375 -12.84375 C 21.039062 -13.070312 21.257812 -13.289062 21.5 -13.5 C 21.695312 -13.613281 21.851562 -13.671875 21.96875 -13.671875 C 22.125 -13.671875 22.265625 -13.613281 22.390625 -13.5 C 22.671875 -13.21875 22.726562 -12.9375 22.5625 -12.65625 C 22.40625 -12.375 22.21875 -12.113281 22 -11.875 C 21.78125 -11.632812 21.570312 -11.378906 21.375 -11.109375 C 20.101562 -9.628906 18.859375 -8.125 17.640625 -6.59375 C 16.429688 -5.0625 15.25 -3.5 14.09375 -1.90625 C 13.175781 -0.75 12.597656 0.519531 12.359375 1.90625 C 12.273438 2.46875 12.113281 3.296875 11.875 4.390625 C 11.632812 5.484375 11.335938 6.597656 10.984375 7.734375 C 10.628906 8.867188 10.203125 9.832031 9.703125 10.625 C 9.203125 11.425781 8.65625 11.828125 8.0625 11.828125 Z M 8.296875 9.546875 C 8.453125 9.546875 8.550781 9.488281 8.59375 9.375 C 8.632812 9.25 8.695312 9.109375 8.78125 8.953125 L 9.671875 6.390625 C 9.867188 5.828125 9.847656 5.347656 9.609375 4.953125 C 9.492188 5.234375 9.363281 5.53125 9.21875 5.84375 C 9.082031 6.164062 8.9375 6.488281 8.78125 6.8125 L 8.0625 8.59375 C 7.976562 8.757812 7.925781 8.929688 7.90625 9.109375 C 7.882812 9.285156 7.957031 9.414062 8.125 9.5 C 8.15625 9.53125 8.210938 9.546875 8.296875 9.546875 Z M 8.296875 9.546875 "/></g></g></g><g fill="#f48d3f" fill-opacity="1"><g transform="translate(161.087606, 222.059036)"><g/></g></g><g fill="#f48d3f" fill-opacity="1"><g transform="translate(183.771486, 222.059036)"><g><path d="M 1.84375 5.671875 C 1.332031 5.671875 0.914062 5.429688 0.59375 4.953125 L 0.421875 4.59375 C -0.253906 2.6875 -0.132812 0.796875 0.78125 -1.078125 C 0.976562 -1.390625 1.175781 -1.59375 1.375 -1.6875 C 1.570312 -1.789062 1.847656 -1.84375 2.203125 -1.84375 C 2.566406 -1.726562 2.785156 -1.507812 2.859375 -1.1875 C 2.898438 -1.03125 2.859375 -0.921875 2.734375 -0.859375 C 2.617188 -0.804688 2.503906 -0.757812 2.390625 -0.71875 C 1.992188 -0.675781 1.734375 -0.414062 1.609375 0.0625 C 1.296875 1.132812 1.257812 2.285156 1.5 3.515625 C 1.53125 3.796875 1.6875 3.9375 1.96875 3.9375 C 2.125 3.9375 2.265625 3.878906 2.390625 3.765625 C 2.628906 3.523438 2.867188 3.253906 3.109375 2.953125 C 3.347656 2.648438 3.601562 2.320312 3.875 1.96875 C 4.28125 1.445312 4.648438 0.925781 4.984375 0.40625 C 5.328125 -0.101562 5.65625 -0.617188 5.96875 -1.140625 C 6.289062 -1.648438 6.597656 -2.171875 6.890625 -2.703125 C 7.191406 -3.242188 7.503906 -3.773438 7.828125 -4.296875 L 14.984375 -16.65625 C 15.023438 -16.78125 15.125 -16.957031 15.28125 -17.1875 C 15.40625 -17.394531 15.46875 -17.613281 15.46875 -17.84375 C 13.675781 -18.601562 11.820312 -18.984375 9.90625 -18.984375 C 9.394531 -18.984375 8.976562 -18.960938 8.65625 -18.921875 C 8.332031 -18.878906 7.953125 -18.757812 7.515625 -18.5625 C 6.523438 -18.082031 6.46875 -17.46875 7.34375 -16.71875 C 7.425781 -16.632812 7.503906 -16.59375 7.578125 -16.59375 C 7.578125 -16.59375 7.617188 -16.554688 7.703125 -16.484375 C 7.816406 -16.359375 7.835938 -16.238281 7.765625 -16.125 C 7.765625 -16.125 7.734375 -16.113281 7.671875 -16.09375 C 7.609375 -16.070312 7.539062 -16.019531 7.46875 -15.9375 C 6.789062 -15.9375 6.269531 -16.253906 5.90625 -16.890625 C 5.59375 -17.609375 5.675781 -18.226562 6.15625 -18.75 C 6.59375 -19.300781 7.1875 -19.675781 7.9375 -19.875 C 8.695312 -20.070312 9.414062 -20.171875 10.09375 -20.171875 C 10.289062 -20.171875 10.507812 -20.160156 10.75 -20.140625 C 10.988281 -20.128906 11.207031 -20.101562 11.40625 -20.0625 C 11.71875 -20.019531 12.050781 -19.96875 12.40625 -19.90625 C 12.769531 -19.851562 13.113281 -19.785156 13.4375 -19.703125 C 13.75 -19.660156 14.082031 -19.597656 14.4375 -19.515625 C 14.800781 -19.441406 15.144531 -19.363281 15.46875 -19.28125 C 15.664062 -19.238281 15.820312 -19.207031 15.9375 -19.1875 C 16.0625 -19.175781 16.140625 -19.171875 16.171875 -19.171875 C 16.378906 -19.171875 16.660156 -19.425781 17.015625 -19.9375 C 17.453125 -20.570312 17.878906 -21.195312 18.296875 -21.8125 C 18.710938 -22.4375 19.117188 -23.066406 19.515625 -23.703125 C 19.953125 -24.335938 20.367188 -24.960938 20.765625 -25.578125 C 21.171875 -26.203125 21.570312 -26.832031 21.96875 -27.46875 C 22.25 -27.90625 22.695312 -28.53125 23.3125 -29.34375 C 23.925781 -30.15625 24.613281 -31.007812 25.375 -31.90625 C 26.132812 -32.800781 26.859375 -33.609375 27.546875 -34.328125 C 28.242188 -35.046875 28.832031 -35.523438 29.3125 -35.765625 C 29.632812 -35.835938 29.796875 -35.875 29.796875 -35.875 C 30.304688 -35.875 30.679688 -35.617188 30.921875 -35.109375 C 31.085938 -34.742188 31.160156 -34.382812 31.140625 -34.03125 C 31.117188 -33.675781 31.066406 -33.335938 30.984375 -33.015625 C 30.742188 -31.617188 30.484375 -30.34375 30.203125 -29.1875 C 29.296875 -25.332031 28.472656 -21.515625 27.734375 -17.734375 C 26.992188 -13.953125 26.585938 -10.070312 26.515625 -6.09375 C 26.472656 -5.289062 26.488281 -4.5 26.5625 -3.71875 C 26.644531 -2.945312 26.765625 -2.1875 26.921875 -1.4375 C 27.003906 -1.070312 27.144531 -0.550781 27.34375 0.125 C 27.539062 0.800781 27.816406 1.40625 28.171875 1.9375 C 28.535156 2.476562 28.9375 2.75 29.375 2.75 C 29.570312 2.75 29.789062 2.6875 30.03125 2.5625 C 30.070312 2.519531 30.171875 2.5 30.328125 2.5 C 30.765625 2.5 31.023438 2.800781 31.109375 3.40625 C 31.148438 3.71875 31.085938 4.003906 30.921875 4.265625 C 30.765625 4.523438 30.546875 4.675781 30.265625 4.71875 L 29.90625 4.71875 C 29.550781 4.71875 29.234375 4.640625 28.953125 4.484375 C 27.722656 3.921875 26.769531 2.90625 26.09375 1.4375 C 25.726562 0.4375 25.46875 -0.578125 25.3125 -1.609375 C 25.15625 -2.648438 25.054688 -3.6875 25.015625 -4.71875 C 24.929688 -6.226562 24.945312 -7.75 25.0625 -9.28125 C 25.1875 -10.8125 25.347656 -12.332031 25.546875 -13.84375 C 25.546875 -13.925781 25.546875 -14.023438 25.546875 -14.140625 C 25.546875 -14.265625 25.566406 -14.367188 25.609375 -14.453125 C 25.648438 -14.523438 25.671875 -14.617188 25.671875 -14.734375 C 25.671875 -14.859375 25.671875 -14.960938 25.671875 -15.046875 C 25.753906 -15.523438 25.515625 -15.765625 24.953125 -15.765625 C 23.835938 -15.804688 22.742188 -15.941406 21.671875 -16.171875 C 20.597656 -16.410156 19.546875 -16.691406 18.515625 -17.015625 C 18.109375 -17.128906 17.804688 -17.1875 17.609375 -17.1875 C 17.296875 -17.1875 16.957031 -16.867188 16.59375 -16.234375 L 10.859375 -6.5 C 10.148438 -5.226562 9.4375 -3.984375 8.71875 -2.765625 C 8 -1.554688 7.257812 -0.335938 6.5 0.890625 C 6.226562 1.328125 5.820312 1.925781 5.28125 2.6875 C 4.75 3.445312 4.171875 4.132812 3.546875 4.75 C 2.929688 5.363281 2.363281 5.671875 1.84375 5.671875 Z M 24.296875 -17.375 L 24.71875 -17.375 C 25.269531 -17.414062 25.625 -17.492188 25.78125 -17.609375 C 25.945312 -17.734375 26.085938 -18.09375 26.203125 -18.6875 C 26.640625 -20.59375 27.078125 -22.507812 27.515625 -24.4375 C 27.960938 -26.375 28.40625 -28.316406 28.84375 -30.265625 C 28.957031 -30.703125 29.050781 -31.117188 29.125 -31.515625 C 29.207031 -31.921875 29.289062 -32.34375 29.375 -32.78125 C 29.414062 -32.851562 29.4375 -32.972656 29.4375 -33.140625 C 29.4375 -33.210938 29.335938 -33.289062 29.140625 -33.375 C 28.972656 -33.414062 28.8125 -33.335938 28.65625 -33.140625 C 28.300781 -32.734375 27.941406 -32.34375 27.578125 -31.96875 C 27.222656 -31.59375 26.867188 -31.207031 26.515625 -30.8125 C 25.796875 -30.09375 25.117188 -29.253906 24.484375 -28.296875 C 23.523438 -26.898438 22.585938 -25.515625 21.671875 -24.140625 C 20.753906 -22.773438 19.835938 -21.394531 18.921875 -20 C 18.878906 -19.957031 18.835938 -19.90625 18.796875 -19.84375 C 18.765625 -19.789062 18.726562 -19.722656 18.6875 -19.640625 C 18.644531 -19.554688 18.59375 -19.472656 18.53125 -19.390625 C 18.476562 -19.316406 18.429688 -19.242188 18.390625 -19.171875 C 18.234375 -18.765625 18.351562 -18.523438 18.75 -18.453125 C 19.664062 -18.171875 20.578125 -17.921875 21.484375 -17.703125 C 22.398438 -17.484375 23.335938 -17.375 24.296875 -17.375 Z M 24.296875 -17.375 "/></g></g></g><g fill="#f48d3f" fill-opacity="1"><g transform="translate(214.812573, 222.059036)"><g><path d="M -0.125 2.8125 C -0.4375 2.6875 -0.59375 2.484375 -0.59375 2.203125 C -0.59375 2.003906 -0.582031 1.804688 -0.5625 1.609375 C -0.539062 1.410156 -0.515625 1.210938 -0.484375 1.015625 C -0.398438 0.015625 -0.285156 -0.957031 -0.140625 -1.90625 C -0.00390625 -2.863281 0.140625 -3.820312 0.296875 -4.78125 C 0.453125 -5.726562 0.609375 -6.679688 0.765625 -7.640625 C 0.929688 -8.597656 1.09375 -9.570312 1.25 -10.5625 C 1.414062 -11.601562 1.625 -12.617188 1.875 -13.609375 C 2.132812 -14.609375 2.425781 -15.601562 2.75 -16.59375 C 3.664062 -19.820312 4.648438 -22.988281 5.703125 -26.09375 C 6.753906 -29.195312 7.976562 -32.28125 9.375 -35.34375 C 9.570312 -35.695312 9.78125 -36.035156 10 -36.359375 C 10.21875 -36.679688 10.445312 -37 10.6875 -37.3125 C 10.84375 -37.59375 11.0625 -37.734375 11.34375 -37.734375 C 11.5 -37.734375 11.597656 -37.710938 11.640625 -37.671875 C 11.992188 -37.472656 12.132812 -37.132812 12.0625 -36.65625 C 12.019531 -36.0625 11.898438 -35.484375 11.703125 -34.921875 C 11.109375 -32.859375 10.410156 -30.828125 9.609375 -28.828125 C 8.816406 -26.835938 8.003906 -24.847656 7.171875 -22.859375 C 7.085938 -22.660156 6.992188 -22.472656 6.890625 -22.296875 C 6.796875 -22.117188 6.707031 -21.929688 6.625 -21.734375 C 6.539062 -21.535156 6.445312 -21.335938 6.34375 -21.140625 C 6.25 -20.941406 6.164062 -20.738281 6.09375 -20.53125 C 5.53125 -19.5 4.96875 -18.15625 4.40625 -16.5 C 3.851562 -14.851562 3.390625 -13.171875 3.015625 -11.453125 C 2.640625 -9.742188 2.390625 -8.273438 2.265625 -7.046875 C 2.628906 -7.085938 2.867188 -7.242188 2.984375 -7.515625 C 3.066406 -7.640625 3.132812 -7.757812 3.1875 -7.875 C 3.25 -8 3.300781 -8.097656 3.34375 -8.171875 C 4.019531 -9.210938 4.765625 -10.191406 5.578125 -11.109375 C 6.398438 -12.023438 7.328125 -12.859375 8.359375 -13.609375 C 8.554688 -13.734375 8.753906 -13.851562 8.953125 -13.96875 C 9.148438 -14.09375 9.347656 -14.210938 9.546875 -14.328125 C 9.984375 -14.566406 10.40625 -14.742188 10.8125 -14.859375 C 11.164062 -14.984375 11.503906 -15.046875 11.828125 -15.046875 C 13.015625 -15.046875 13.628906 -14.3125 13.671875 -12.84375 C 13.753906 -12.4375 13.753906 -12.015625 13.671875 -11.578125 C 13.628906 -11.378906 13.597656 -11.171875 13.578125 -10.953125 C 13.554688 -10.734375 13.53125 -10.523438 13.5 -10.328125 C 13.5 -10.085938 13.476562 -9.925781 13.4375 -9.84375 C 13.394531 -9.6875 13.429688 -9.53125 13.546875 -9.375 L 13.734375 -9.375 C 13.929688 -9.375 14.085938 -9.429688 14.203125 -9.546875 C 14.285156 -9.585938 14.359375 -9.628906 14.421875 -9.671875 C 14.484375 -9.710938 14.53125 -9.753906 14.5625 -9.796875 C 15.675781 -10.472656 16.820312 -11.097656 18 -11.671875 C 19.175781 -12.242188 20.34375 -12.8125 21.5 -13.375 C 21.570312 -13.414062 21.644531 -13.453125 21.71875 -13.484375 C 21.800781 -13.523438 21.90625 -13.566406 22.03125 -13.609375 C 22.070312 -13.648438 22.191406 -13.671875 22.390625 -13.671875 C 22.785156 -13.671875 23.003906 -13.53125 23.046875 -13.25 C 23.160156 -12.769531 23.019531 -12.453125 22.625 -12.296875 C 22.46875 -12.210938 22.304688 -12.117188 22.140625 -12.015625 C 21.984375 -11.921875 21.828125 -11.835938 21.671875 -11.765625 C 21.515625 -11.679688 21.351562 -11.597656 21.1875 -11.515625 C 21.03125 -11.441406 20.875 -11.363281 20.71875 -11.28125 C 18.40625 -10.164062 16.132812 -8.910156 13.90625 -7.515625 C 13.351562 -7.160156 12.875 -6.773438 12.46875 -6.359375 C 12.070312 -5.941406 11.738281 -5.4375 11.46875 -4.84375 C 11.1875 -4.28125 10.734375 -3.585938 10.109375 -2.765625 C 9.492188 -1.953125 8.828125 -1.21875 8.109375 -0.5625 C 7.398438 0.09375 6.707031 0.457031 6.03125 0.53125 C 5.632812 0.570312 5.316406 0.453125 5.078125 0.171875 C 4.835938 -0.0976562 4.757812 -0.429688 4.84375 -0.828125 C 5 -1.503906 5.375 -2.191406 5.96875 -2.890625 C 6.5625 -3.585938 7.21875 -4.253906 7.9375 -4.890625 C 8.65625 -5.523438 9.273438 -6.046875 9.796875 -6.453125 C 10.742188 -7.128906 11.335938 -8.023438 11.578125 -9.140625 C 11.742188 -9.691406 11.882812 -10.253906 12 -10.828125 C 12.113281 -11.410156 12.15625 -12 12.125 -12.59375 C 12.125 -13.113281 11.90625 -13.375 11.46875 -13.375 C 11.269531 -13.375 11.148438 -13.351562 11.109375 -13.3125 C 10.742188 -13.195312 10.410156 -13.046875 10.109375 -12.859375 C 9.816406 -12.679688 9.507812 -12.492188 9.1875 -12.296875 C 6.882812 -10.546875 5.1875 -8.503906 4.09375 -6.171875 C 3 -3.847656 1.992188 -1.332031 1.078125 1.375 C 1.035156 1.457031 1.003906 1.554688 0.984375 1.671875 C 0.960938 1.785156 0.929688 1.882812 0.890625 1.96875 C 0.847656 2.050781 0.816406 2.140625 0.796875 2.234375 C 0.785156 2.335938 0.757812 2.425781 0.71875 2.5 C 0.632812 2.707031 0.414062 2.8125 0.0625 2.8125 Z M -0.125 2.8125 "/></g></g></g><g fill="#f48d3f" fill-opacity="1"><g transform="translate(234.929584, 222.059036)"><g><path d="M 12.65625 -4.59375 C 11.976562 -4.59375 11.476562 -4.8125 11.15625 -5.25 C 10.84375 -5.6875 10.644531 -6.222656 10.5625 -6.859375 C 10.488281 -7.503906 10.453125 -8.125 10.453125 -8.71875 C 10.484375 -8.914062 10.519531 -9.125 10.5625 -9.34375 C 10.601562 -9.5625 10.644531 -9.8125 10.6875 -10.09375 C 10.726562 -10.363281 10.757812 -10.640625 10.78125 -10.921875 C 10.800781 -11.203125 10.828125 -11.484375 10.859375 -11.765625 C 10.859375 -11.835938 10.867188 -11.914062 10.890625 -12 C 10.910156 -12.082031 10.941406 -12.160156 10.984375 -12.234375 C 11.023438 -12.398438 10.945312 -12.519531 10.75 -12.59375 L 10.625 -12.59375 C 10.46875 -12.59375 10.347656 -12.535156 10.265625 -12.421875 C 10.222656 -12.378906 10.171875 -12.328125 10.109375 -12.265625 C 10.054688 -12.203125 10.007812 -12.15625 9.96875 -12.125 C 9.8125 -11.957031 9.671875 -11.8125 9.546875 -11.6875 C 9.429688 -11.570312 9.3125 -11.4375 9.1875 -11.28125 C 9.03125 -11.125 8.878906 -10.984375 8.734375 -10.859375 C 8.597656 -10.742188 8.453125 -10.609375 8.296875 -10.453125 C 7.503906 -9.648438 6.617188 -8.832031 5.640625 -8 C 4.660156 -7.164062 3.65625 -6.53125 2.625 -6.09375 C 2.507812 -6.050781 2.398438 -6.019531 2.296875 -6 C 2.203125 -5.976562 2.113281 -5.96875 2.03125 -5.96875 C 1.269531 -5.96875 0.832031 -6.367188 0.71875 -7.171875 C 0.59375 -7.484375 0.570312 -7.9375 0.65625 -8.53125 C 0.8125 -9.6875 1.054688 -10.820312 1.390625 -11.9375 C 1.734375 -13.050781 2.207031 -14.128906 2.8125 -15.171875 L 3.28125 -15.828125 C 3.519531 -16.054688 3.738281 -16.171875 3.9375 -16.171875 C 4.132812 -16.171875 4.296875 -16.113281 4.421875 -16 C 4.773438 -15.71875 4.8125 -15.378906 4.53125 -14.984375 C 4.457031 -14.828125 4.367188 -14.664062 4.265625 -14.5 C 4.171875 -14.34375 4.0625 -14.164062 3.9375 -13.96875 C 3.5 -13.132812 3.140625 -12.269531 2.859375 -11.375 C 2.585938 -10.476562 2.367188 -9.550781 2.203125 -8.59375 C 2.203125 -8.550781 2.203125 -8.5 2.203125 -8.4375 C 2.203125 -8.382812 2.203125 -8.316406 2.203125 -8.234375 C 2.203125 -8.078125 2.285156 -7.976562 2.453125 -7.9375 C 2.484375 -7.894531 2.5625 -7.875 2.6875 -7.875 C 2.800781 -7.875 2.960938 -7.957031 3.171875 -8.125 C 3.328125 -8.238281 3.484375 -8.351562 3.640625 -8.46875 C 3.796875 -8.59375 3.957031 -8.71875 4.125 -8.84375 C 4.28125 -8.914062 4.425781 -9.007812 4.5625 -9.125 C 4.707031 -9.25 4.859375 -9.375 5.015625 -9.5 C 6.046875 -10.375 7.019531 -11.285156 7.9375 -12.234375 C 8.851562 -13.191406 9.75 -14.1875 10.625 -15.21875 C 10.78125 -15.382812 10.914062 -15.523438 11.03125 -15.640625 C 11.15625 -15.765625 11.300781 -15.90625 11.46875 -16.0625 C 11.582031 -16.21875 11.707031 -16.351562 11.84375 -16.46875 C 11.988281 -16.59375 12.140625 -16.734375 12.296875 -16.890625 C 12.453125 -17.054688 12.613281 -17.140625 12.78125 -17.140625 C 12.820312 -17.140625 12.957031 -17.097656 13.1875 -17.015625 C 13.507812 -16.859375 13.648438 -16.597656 13.609375 -16.234375 C 13.566406 -16.078125 13.535156 -15.925781 13.515625 -15.78125 C 13.503906 -15.644531 13.476562 -15.519531 13.4375 -15.40625 C 13.394531 -15.25 13.351562 -15.097656 13.3125 -14.953125 C 13.269531 -14.816406 13.226562 -14.671875 13.1875 -14.515625 C 12.914062 -13.628906 12.675781 -12.738281 12.46875 -11.84375 C 12.269531 -10.945312 12.132812 -10.003906 12.0625 -9.015625 C 12.019531 -8.421875 12.019531 -7.820312 12.0625 -7.21875 C 12.132812 -6.507812 12.410156 -6.15625 12.890625 -6.15625 C 13.410156 -6.15625 14.03125 -6.378906 14.75 -6.828125 C 15.46875 -7.285156 16.191406 -7.851562 16.921875 -8.53125 C 17.660156 -9.207031 18.347656 -9.863281 18.984375 -10.5 C 19.617188 -11.144531 20.117188 -11.664062 20.484375 -12.0625 C 20.835938 -12.457031 21.210938 -12.832031 21.609375 -13.1875 C 21.691406 -13.269531 21.789062 -13.3125 21.90625 -13.3125 C 22.070312 -13.3125 22.210938 -13.253906 22.328125 -13.140625 C 22.648438 -12.816406 22.726562 -12.535156 22.5625 -12.296875 C 22.488281 -12.140625 22.421875 -12.007812 22.359375 -11.90625 C 22.296875 -11.8125 22.226562 -11.722656 22.15625 -11.640625 C 21.476562 -10.847656 20.640625 -9.929688 19.640625 -8.890625 C 18.648438 -7.859375 17.597656 -6.929688 16.484375 -6.109375 C 15.367188 -5.296875 14.289062 -4.8125 13.25 -4.65625 C 13.132812 -4.613281 12.9375 -4.59375 12.65625 -4.59375 Z M 12.65625 -4.59375 "/></g></g></g><g fill="#f48d3f" fill-opacity="1"><g transform="translate(254.569047, 222.059036)"><g><path d="M 1.078125 4.234375 C 0.316406 4.234375 -0.1875 3.816406 -0.4375 2.984375 C -0.695312 2.148438 -0.828125 1.394531 -0.828125 0.71875 C -0.828125 -1.195312 -0.585938 -3.316406 -0.109375 -5.640625 C 0.359375 -7.972656 0.941406 -10.269531 1.640625 -12.53125 C 2.335938 -14.800781 3.003906 -16.832031 3.640625 -18.625 C 3.835938 -19.1875 4.023438 -19.710938 4.203125 -20.203125 C 4.390625 -20.703125 4.582031 -21.210938 4.78125 -21.734375 C 4.9375 -22.171875 4.984375 -22.476562 4.921875 -22.65625 C 4.867188 -22.832031 4.660156 -22.921875 4.296875 -22.921875 L 3.828125 -22.921875 C 3.421875 -22.878906 3.019531 -22.835938 2.625 -22.796875 C 2.226562 -22.765625 1.832031 -22.707031 1.4375 -22.625 C 1.03125 -22.582031 0.617188 -22.53125 0.203125 -22.46875 C -0.210938 -22.414062 -0.617188 -22.367188 -1.015625 -22.328125 C -1.253906 -22.285156 -1.503906 -22.242188 -1.765625 -22.203125 C -2.023438 -22.171875 -2.269531 -22.15625 -2.5 -22.15625 C -2.820312 -22.15625 -3.046875 -22.171875 -3.171875 -22.203125 C -3.367188 -22.242188 -3.503906 -22.363281 -3.578125 -22.5625 C -3.660156 -22.96875 -3.5625 -23.1875 -3.28125 -23.21875 C -3.125 -23.257812 -2.984375 -23.300781 -2.859375 -23.34375 C -2.742188 -23.382812 -2.625 -23.425781 -2.5 -23.46875 C -2.34375 -23.5 -2.191406 -23.523438 -2.046875 -23.546875 C -1.910156 -23.566406 -1.765625 -23.597656 -1.609375 -23.640625 C -1.054688 -23.722656 -0.515625 -23.800781 0.015625 -23.875 C 0.554688 -23.957031 1.085938 -24.019531 1.609375 -24.0625 C 2.171875 -24.144531 2.707031 -24.210938 3.21875 -24.265625 C 3.738281 -24.328125 4.257812 -24.378906 4.78125 -24.421875 C 5.488281 -24.460938 5.984375 -24.800781 6.265625 -25.4375 L 7.875 -29.015625 C 8.039062 -29.253906 8.179688 -29.492188 8.296875 -29.734375 C 8.421875 -29.972656 8.5625 -30.210938 8.71875 -30.453125 C 8.832031 -30.691406 8.957031 -30.925781 9.09375 -31.15625 C 9.238281 -31.394531 9.390625 -31.632812 9.546875 -31.875 C 9.984375 -32.59375 10.40625 -32.953125 10.8125 -32.953125 C 11.050781 -32.953125 11.226562 -32.8125 11.34375 -32.53125 C 11.425781 -32.132812 11.328125 -31.695312 11.046875 -31.21875 C 10.722656 -30.425781 10.375 -29.628906 10 -28.828125 C 9.625 -28.035156 9.238281 -27.242188 8.84375 -26.453125 C 8.800781 -26.367188 8.757812 -26.265625 8.71875 -26.140625 C 8.675781 -26.023438 8.632812 -25.925781 8.59375 -25.84375 C 8.476562 -25.613281 8.421875 -25.335938 8.421875 -25.015625 C 8.578125 -24.972656 8.710938 -24.941406 8.828125 -24.921875 C 8.953125 -24.898438 9.070312 -24.890625 9.1875 -24.890625 C 9.351562 -24.890625 9.472656 -24.910156 9.546875 -24.953125 C 9.628906 -24.953125 9.691406 -24.953125 9.734375 -24.953125 C 9.773438 -24.953125 9.8125 -24.953125 9.84375 -24.953125 C 10.6875 -25.035156 11.554688 -25.125 12.453125 -25.21875 C 13.347656 -25.320312 14.289062 -25.414062 15.28125 -25.5 C 16.28125 -25.570312 17.226562 -25.644531 18.125 -25.71875 C 19.019531 -25.800781 19.882812 -25.882812 20.71875 -25.96875 L 22.859375 -25.96875 C 23.140625 -25.96875 23.300781 -25.769531 23.34375 -25.375 C 23.34375 -25.050781 23.222656 -24.851562 22.984375 -24.78125 C 22.828125 -24.738281 22.6875 -24.707031 22.5625 -24.6875 C 22.445312 -24.664062 22.328125 -24.65625 22.203125 -24.65625 C 22.085938 -24.613281 21.96875 -24.59375 21.84375 -24.59375 C 21.726562 -24.59375 21.59375 -24.570312 21.4375 -24.53125 L 8.59375 -23.40625 C 7.71875 -23.320312 7.140625 -22.921875 6.859375 -22.203125 C 6.503906 -21.453125 6.078125 -20.367188 5.578125 -18.953125 C 5.085938 -17.546875 4.570312 -16.023438 4.03125 -14.390625 C 3.488281 -12.753906 3 -11.195312 2.5625 -9.71875 C 2.125 -8.25 1.804688 -7.078125 1.609375 -6.203125 C 1.367188 -5.210938 1.175781 -4.226562 1.03125 -3.25 C 0.894531 -2.28125 0.789062 -1.273438 0.71875 -0.234375 C 0.675781 0.203125 0.644531 0.664062 0.625 1.15625 C 0.601562 1.65625 0.8125 2.085938 1.25 2.453125 C 1.6875 2.410156 2.085938 2.207031 2.453125 1.84375 C 2.609375 1.644531 2.753906 1.457031 2.890625 1.28125 C 3.035156 1.101562 3.1875 0.9375 3.34375 0.78125 C 3.976562 -0.0195312 4.742188 -1.046875 5.640625 -2.296875 C 6.535156 -3.546875 7.453125 -4.828125 8.390625 -6.140625 C 9.328125 -7.460938 10.191406 -8.660156 10.984375 -9.734375 C 11.773438 -10.804688 12.394531 -11.5625 12.84375 -12 C 12.914062 -12.113281 13.007812 -12.226562 13.125 -12.34375 C 13.25 -12.46875 13.351562 -12.59375 13.4375 -12.71875 C 13.632812 -12.914062 13.875 -13.070312 14.15625 -13.1875 C 14.1875 -13.1875 14.222656 -13.207031 14.265625 -13.25 C 14.304688 -13.25 14.328125 -13.25 14.328125 -13.25 C 14.328125 -13.25 14.347656 -13.25 14.390625 -13.25 C 14.429688 -13.25 14.570312 -13.210938 14.8125 -13.140625 C 15.125 -12.898438 15.179688 -12.597656 14.984375 -12.234375 C 14.984375 -12.117188 14.925781 -12 14.8125 -11.875 C 14.207031 -11.164062 13.414062 -10.148438 12.4375 -8.828125 C 11.46875 -7.515625 10.566406 -6.285156 9.734375 -5.140625 C 8.734375 -3.785156 7.71875 -2.421875 6.6875 -1.046875 C 5.65625 0.328125 4.660156 1.570312 3.703125 2.6875 C 3.421875 3.039062 3.03125 3.382812 2.53125 3.71875 C 2.039062 4.0625 1.554688 4.234375 1.078125 4.234375 Z M 1.078125 4.234375 "/></g></g></g><g fill="#f48d3f" fill-opacity="1"><g transform="translate(266.567625, 222.059036)"><g><path d="M -0.421875 4.78125 C -0.734375 4.78125 -1.050781 4.679688 -1.375 4.484375 C -1.851562 4.160156 -2.148438 3.78125 -2.265625 3.34375 C -2.390625 2.90625 -2.410156 2.425781 -2.328125 1.90625 C -2.210938 1.351562 -1.914062 0.707031 -1.4375 -0.03125 C -0.957031 -0.769531 -0.421875 -1.476562 0.171875 -2.15625 C 0.773438 -2.832031 1.316406 -3.328125 1.796875 -3.640625 C 2.234375 -3.992188 2.519531 -4.367188 2.65625 -4.765625 C 2.789062 -5.171875 2.859375 -5.648438 2.859375 -6.203125 C 2.828125 -7.117188 2.75 -8.015625 2.625 -8.890625 C 2.507812 -9.765625 2.351562 -10.660156 2.15625 -11.578125 C 2.070312 -11.972656 2.007812 -12.359375 1.96875 -12.734375 C 1.925781 -13.117188 1.882812 -13.507812 1.84375 -13.90625 C 1.769531 -15.257812 2.019531 -16.421875 2.59375 -17.390625 C 3.175781 -18.367188 3.984375 -19.238281 5.015625 -20 C 5.609375 -20.351562 6.222656 -20.53125 6.859375 -20.53125 C 7.179688 -20.53125 7.441406 -20.507812 7.640625 -20.46875 C 7.835938 -20.4375 8.054688 -20.300781 8.296875 -20.0625 C 8.453125 -19.90625 8.5 -19.722656 8.4375 -19.515625 C 8.382812 -19.316406 8.257812 -19.179688 8.0625 -19.109375 C 8.019531 -19.066406 7.898438 -19.046875 7.703125 -19.046875 C 6.585938 -19.046875 5.609375 -18.644531 4.765625 -17.84375 C 3.929688 -17.050781 3.476562 -16.097656 3.40625 -14.984375 C 3.363281 -14.828125 3.34375 -14.664062 3.34375 -14.5 C 3.34375 -14.34375 3.34375 -14.1875 3.34375 -14.03125 C 3.34375 -13.875 3.351562 -13.710938 3.375 -13.546875 C 3.394531 -13.390625 3.425781 -13.234375 3.46875 -13.078125 C 3.664062 -12.003906 3.851562 -10.9375 4.03125 -9.875 C 4.207031 -8.820312 4.335938 -7.757812 4.421875 -6.6875 C 4.421875 -6.644531 4.519531 -6.46875 4.71875 -6.15625 C 5.070312 -6.351562 5.367188 -6.53125 5.609375 -6.6875 L 14.265625 -12.78125 C 14.460938 -12.851562 14.644531 -12.972656 14.8125 -13.140625 C 15.007812 -13.253906 15.1875 -13.3125 15.34375 -13.3125 C 15.5 -13.3125 15.640625 -13.253906 15.765625 -13.140625 C 16.117188 -12.816406 16.15625 -12.515625 15.875 -12.234375 C 15.71875 -11.992188 15.398438 -11.695312 14.921875 -11.34375 C 14.128906 -10.78125 13.351562 -10.226562 12.59375 -9.6875 C 11.84375 -9.15625 11.085938 -8.613281 10.328125 -8.0625 L 5.375 -4.53125 C 4.695312 -4.0625 4.296875 -3.425781 4.171875 -2.625 C 4.140625 -1.789062 3.921875 -0.796875 3.515625 0.359375 C 3.117188 1.515625 2.582031 2.539062 1.90625 3.4375 C 1.226562 4.332031 0.453125 4.78125 -0.421875 4.78125 Z M -0.296875 3.109375 C -0.140625 3.109375 0 3.046875 0.125 2.921875 C 0.675781 2.484375 1.148438 1.835938 1.546875 0.984375 C 1.953125 0.128906 2.171875 -0.773438 2.203125 -1.734375 C 0.816406 -0.691406 -0.175781 0.5625 -0.78125 2.03125 C -0.8125 2.1875 -0.8125 2.328125 -0.78125 2.453125 C -0.78125 2.648438 -0.71875 2.804688 -0.59375 2.921875 C -0.519531 3.046875 -0.421875 3.109375 -0.296875 3.109375 Z M -0.296875 3.109375 "/></g></g></g><g fill="#f48d3f" fill-opacity="1"><g transform="translate(279.581002, 222.059036)"><g><path d="M 0.296875 -5.140625 C -0.492188 -5.140625 -0.929688 -5.613281 -1.015625 -6.5625 C -1.015625 -7.4375 -0.820312 -8.367188 -0.4375 -9.359375 C -0.0625 -10.359375 0.410156 -11.316406 0.984375 -12.234375 C 1.554688 -13.148438 2.144531 -13.910156 2.75 -14.515625 C 2.90625 -14.710938 3.203125 -14.96875 3.640625 -15.28125 C 4.273438 -15.800781 4.929688 -16.0625 5.609375 -16.0625 C 6.203125 -16.0625 6.800781 -15.820312 7.40625 -15.34375 C 7.71875 -15.144531 7.894531 -15.046875 7.9375 -15.046875 C 8.0625 -15.046875 8.242188 -15.203125 8.484375 -15.515625 C 8.679688 -15.722656 8.867188 -15.941406 9.046875 -16.171875 C 9.222656 -16.410156 9.390625 -16.648438 9.546875 -16.890625 C 9.710938 -17.128906 9.882812 -17.367188 10.0625 -17.609375 C 10.238281 -17.847656 10.40625 -18.085938 10.5625 -18.328125 C 10.644531 -18.410156 10.722656 -18.507812 10.796875 -18.625 C 10.878906 -18.75 10.960938 -18.867188 11.046875 -18.984375 C 11.128906 -19.066406 11.195312 -19.164062 11.25 -19.28125 C 11.3125 -19.40625 11.382812 -19.503906 11.46875 -19.578125 C 11.738281 -19.859375 11.972656 -20 12.171875 -20 C 12.171875 -20 12.289062 -19.957031 12.53125 -19.875 C 12.9375 -19.632812 13.039062 -19.238281 12.84375 -18.6875 C 12.800781 -18.53125 12.75 -18.390625 12.6875 -18.265625 C 12.625 -18.148438 12.554688 -18.03125 12.484375 -17.90625 C 12.316406 -17.632812 12.175781 -17.359375 12.0625 -17.078125 C 11.695312 -16.316406 11.273438 -15.378906 10.796875 -14.265625 C 10.328125 -13.148438 9.921875 -12.023438 9.578125 -10.890625 C 9.242188 -9.753906 9.078125 -8.75 9.078125 -7.875 C 9.078125 -7.519531 9.195312 -7.34375 9.4375 -7.34375 C 9.550781 -7.34375 9.628906 -7.363281 9.671875 -7.40625 C 9.953125 -7.519531 10.21875 -7.632812 10.46875 -7.75 C 10.726562 -7.875 11 -8.015625 11.28125 -8.171875 C 11.644531 -8.410156 12.015625 -8.660156 12.390625 -8.921875 C 12.765625 -9.179688 13.132812 -9.472656 13.5 -9.796875 C 13.769531 -9.992188 14.023438 -10.210938 14.265625 -10.453125 C 14.503906 -10.691406 14.742188 -10.910156 14.984375 -11.109375 C 15.421875 -11.546875 15.898438 -11.960938 16.421875 -12.359375 C 16.492188 -12.441406 16.582031 -12.519531 16.6875 -12.59375 C 16.789062 -12.675781 16.878906 -12.757812 16.953125 -12.84375 C 17.035156 -12.914062 17.195312 -13.03125 17.4375 -13.1875 C 17.507812 -13.226562 17.566406 -13.257812 17.609375 -13.28125 C 17.648438 -13.300781 17.691406 -13.3125 17.734375 -13.3125 C 17.890625 -13.3125 18.03125 -13.253906 18.15625 -13.140625 C 18.425781 -12.972656 18.503906 -12.671875 18.390625 -12.234375 C 18.347656 -12.191406 18.328125 -12.160156 18.328125 -12.140625 C 18.328125 -12.128906 18.304688 -12.101562 18.265625 -12.0625 C 18.222656 -12.019531 18.179688 -11.976562 18.140625 -11.9375 C 18.109375 -11.894531 18.070312 -11.859375 18.03125 -11.828125 C 17.46875 -11.265625 16.671875 -10.515625 15.640625 -9.578125 C 14.609375 -8.640625 13.546875 -7.789062 12.453125 -7.03125 C 11.359375 -6.28125 10.390625 -5.828125 9.546875 -5.671875 C 9.472656 -5.628906 9.296875 -5.609375 9.015625 -5.609375 C 8.015625 -5.609375 7.515625 -6.1875 7.515625 -7.34375 C 7.515625 -8.132812 7.59375 -8.925781 7.75 -9.71875 C 7.914062 -10.519531 8.097656 -11.320312 8.296875 -12.125 C 7.859375 -11.925781 7.5625 -11.722656 7.40625 -11.515625 C 7.320312 -11.398438 7.21875 -11.28125 7.09375 -11.15625 C 6.976562 -11.039062 6.882812 -10.941406 6.8125 -10.859375 C 6.132812 -10.066406 5.457031 -9.300781 4.78125 -8.5625 C 4.101562 -7.832031 3.382812 -7.128906 2.625 -6.453125 C 2.34375 -6.210938 1.984375 -5.929688 1.546875 -5.609375 C 1.109375 -5.296875 0.691406 -5.140625 0.296875 -5.140625 Z M 0.828125 -7.28125 C 1.066406 -7.28125 1.25 -7.34375 1.375 -7.46875 C 2.332031 -8.257812 3.226562 -9.128906 4.0625 -10.078125 C 4.894531 -11.035156 5.707031 -12.015625 6.5 -13.015625 C 6.539062 -13.054688 6.582031 -13.09375 6.625 -13.125 C 6.664062 -13.164062 6.707031 -13.226562 6.75 -13.3125 C 6.863281 -13.707031 6.78125 -13.988281 6.5 -14.15625 C 6.1875 -14.351562 5.910156 -14.453125 5.671875 -14.453125 C 5.472656 -14.453125 5.222656 -14.367188 4.921875 -14.203125 C 4.628906 -14.046875 4.398438 -13.890625 4.234375 -13.734375 C 2.367188 -12.097656 1.195312 -9.988281 0.71875 -7.40625 L 0.78125 -7.34375 C 0.8125 -7.34375 0.828125 -7.320312 0.828125 -7.28125 Z M 0.828125 -7.28125 "/></g></g></g></svg>