<svg xmlns="http://www.w3.org/2000/svg" xmlns:xlink="http://www.w3.org/1999/xlink" width="500" zoomAndPan="magnify" viewBox="0 0 375 374.999991" height="500" preserveAspectRatio="xMidYMid meet" version="1.0"><defs><g/><clipPath id="26545494c6"><path d="M 67.609375 178.078125 L 299.648438 178.078125 L 299.648438 211.59375 L 67.609375 211.59375 Z M 67.609375 178.078125 " clip-rule="nonzero"/></clipPath></defs><rect x="-37.5" width="450" fill="#ffffff" y="-37.499999" height="449.999989" fill-opacity="1"/><rect x="-37.5" width="450" fill="#07363c" y="-37.499999" height="449.999989" fill-opacity="1"/><g fill="#f48d3f" fill-opacity="1"><g transform="translate(77.187992, 227.95694)"><g><path d="M 134.015625 -0.5 C 134.347656 -0.5 134.515625 -0.332031 134.515625 0 C 134.515625 0.332031 134.347656 0.5 134.015625 0.5 L 101.671875 0.5 C 101.335938 0.5 101.171875 0.332031 101.171875 0 C 101.171875 -0.332031 101.335938 -0.5 101.671875 -0.5 C 103.546875 -0.5 105.175781 -1.1875 106.5625 -2.5625 C 107.945312 -3.945312 108.640625 -5.582031 108.640625 -7.46875 L 108.640625 -112.453125 L 71.984375 -20.5625 L 69.5 -14.59375 L 62.6875 2.8125 C 62.6875 2.707031 62.632812 2.707031 62.53125 2.8125 C 62.53125 2.925781 62.53125 2.984375 62.53125 2.984375 C 62.53125 2.984375 62.5 2.984375 62.4375 2.984375 C 62.382812 2.984375 62.359375 2.984375 62.359375 2.984375 C 62.359375 3.097656 62.359375 3.15625 62.359375 3.15625 C 62.253906 3.15625 62.253906 3.15625 62.359375 3.15625 C 62.359375 3.15625 62.304688 3.15625 62.203125 3.15625 C 62.304688 3.15625 62.304688 3.15625 62.203125 3.15625 C 62.085938 3.15625 62.03125 3.15625 62.03125 3.15625 C 62.03125 3.15625 61.972656 3.15625 61.859375 3.15625 C 61.753906 3.039062 61.703125 2.984375 61.703125 2.984375 C 61.585938 2.867188 61.53125 2.8125 61.53125 2.8125 L 17.421875 -107.8125 C 16.972656 -108.800781 16.363281 -109.796875 15.59375 -110.796875 L 15.59375 -7.46875 C 15.59375 -5.582031 16.253906 -3.945312 17.578125 -2.5625 C 18.910156 -1.1875 20.515625 -0.5 22.390625 -0.5 C 22.828125 -0.5 23.046875 -0.332031 23.046875 0 C 23.046875 0.332031 22.828125 0.5 22.390625 0.5 L 15.09375 0.5 C 14.976562 0.5 14.921875 0.5 14.921875 0.5 C 15.035156 0.5 15.035156 0.5 14.921875 0.5 L 7.46875 0.5 C 7.132812 0.5 6.96875 0.332031 6.96875 0 C 6.96875 -0.332031 7.132812 -0.5 7.46875 -0.5 C 9.457031 -0.5 11.113281 -1.1875 12.4375 -2.5625 C 13.769531 -3.945312 14.4375 -5.582031 14.4375 -7.46875 L 14.4375 -111.953125 C 12.21875 -113.835938 9.945312 -114.78125 7.625 -114.78125 C 7.1875 -114.78125 6.96875 -115 6.96875 -115.4375 C 6.96875 -115.769531 7.1875 -115.9375 7.625 -115.9375 L 33.671875 -115.9375 C 34.003906 -115.9375 34.171875 -115.828125 34.171875 -115.609375 L 71.484375 -22.390625 L 108.640625 -115.609375 C 108.742188 -115.828125 108.910156 -115.9375 109.140625 -115.9375 L 134.015625 -115.9375 C 134.347656 -115.9375 134.515625 -115.769531 134.515625 -115.4375 C 134.515625 -115 134.347656 -114.78125 134.015625 -114.78125 C 132.128906 -114.78125 130.492188 -114.113281 129.109375 -112.78125 C 127.734375 -111.457031 127.046875 -109.851562 127.046875 -107.96875 L 127.046875 -7.46875 C 127.046875 -5.582031 127.734375 -3.945312 129.109375 -2.5625 C 130.492188 -1.1875 132.128906 -0.5 134.015625 -0.5 Z M 134.015625 -0.5 "/></g></g></g><g fill="#f48d3f" fill-opacity="1"><g transform="translate(179.786528, 227.95694)"><g><path d="M 110.625 -0.5 C 110.957031 -0.5 111.125 -0.332031 111.125 0 C 111.125 0.4375 110.957031 0.65625 110.625 0.65625 L 76.953125 0.65625 C 76.628906 0.65625 76.46875 0.4375 76.46875 0 C 76.46875 -0.332031 76.628906 -0.5 76.953125 -0.5 C 78.722656 -0.5 80 -1.109375 80.78125 -2.328125 C 81.65625 -3.648438 81.707031 -5.304688 80.9375 -7.296875 L 70 -35 L 23.546875 -35 L 12.4375 -7.125 C 11.664062 -5.25 11.722656 -3.648438 12.609375 -2.328125 C 13.492188 -1.109375 14.765625 -0.5 16.421875 -0.5 C 16.859375 -0.5 17.078125 -0.332031 17.078125 0 C 17.078125 0.332031 16.859375 0.5 16.421875 0.5 L 1.5 0.5 C 1.164062 0.5 1 0.332031 1 0 C 1 -0.332031 1.164062 -0.5 1.5 -0.5 C 3.488281 -0.5 5.445312 -1.1875 7.375 -2.5625 C 9.3125 -3.945312 10.664062 -5.632812 11.4375 -7.625 L 22.71875 -35.65625 C 22.71875 -35.769531 22.71875 -35.828125 22.71875 -35.828125 C 22.832031 -35.929688 22.832031 -35.929688 22.71875 -35.828125 C 22.71875 -35.828125 22.773438 -35.878906 22.890625 -35.984375 C 22.992188 -35.984375 23.046875 -35.984375 23.046875 -35.984375 C 23.046875 -35.984375 23.101562 -35.984375 23.21875 -35.984375 L 69.5 -35.984375 L 46.28125 -94.375 C 46.164062 -94.488281 46.164062 -94.597656 46.28125 -94.703125 L 55.5625 -118.09375 C 55.5625 -118.09375 55.5625 -118.144531 55.5625 -118.25 C 55.5625 -118.25 55.617188 -118.25 55.734375 -118.25 C 55.734375 -118.363281 55.734375 -118.421875 55.734375 -118.421875 C 55.734375 -118.421875 55.785156 -118.421875 55.890625 -118.421875 C 55.890625 -118.421875 55.914062 -118.421875 55.96875 -118.421875 C 56.03125 -118.421875 56.0625 -118.421875 56.0625 -118.421875 C 56.164062 -118.535156 56.164062 -118.535156 56.0625 -118.421875 C 56.0625 -118.535156 56.113281 -118.59375 56.21875 -118.59375 C 56.21875 -118.59375 56.21875 -118.535156 56.21875 -118.421875 C 56.332031 -118.421875 56.390625 -118.421875 56.390625 -118.421875 C 56.503906 -118.304688 56.5625 -118.25 56.5625 -118.25 C 56.5625 -118.25 56.5625 -118.222656 56.5625 -118.171875 C 56.5625 -118.117188 56.5625 -118.09375 56.5625 -118.09375 L 100.84375 -7.625 C 101.613281 -5.632812 102.9375 -3.945312 104.8125 -2.5625 C 106.695312 -1.1875 108.632812 -0.5 110.625 -0.5 Z M 110.625 -0.5 "/></g></g></g><g clip-path="url(#26545494c6)"><path fill="#07363c" d="M 299.648438 178.078125 L 299.648438 211.59375 L 67.652344 211.59375 L 67.652344 178.078125 Z M 299.648438 178.078125 " fill-opacity="1" fill-rule="nonzero"/></g><g fill="#f48d3f" fill-opacity="1"><g transform="translate(103.704563, 203.090187)"><g><path d="M 0.625 4.09375 C 0.332031 4.09375 0.148438 3.929688 0.078125 3.609375 C 0.046875 3.515625 0.0234375 3.421875 0.015625 3.328125 C 0.00390625 3.242188 0 3.15625 0 3.0625 C 0 2.96875 0 2.878906 0 2.796875 C 0 2.722656 0 2.640625 0 2.546875 C -0.0195312 1.679688 0.0351562 0.847656 0.171875 0.046875 C 0.304688 -0.742188 0.457031 -1.546875 0.625 -2.359375 C 0.96875 -4.035156 1.390625 -5.671875 1.890625 -7.265625 C 2.398438 -8.867188 2.914062 -10.476562 3.4375 -12.09375 L 5.75 -19.484375 C 5.800781 -19.578125 5.84375 -19.675781 5.875 -19.78125 C 5.914062 -19.894531 5.945312 -20.003906 5.96875 -20.109375 C 6.050781 -20.304688 6.148438 -20.503906 6.265625 -20.703125 C 6.421875 -20.867188 6.570312 -20.953125 6.71875 -20.953125 C 6.8125 -20.953125 6.875 -20.941406 6.90625 -20.921875 C 7.144531 -20.773438 7.203125 -20.566406 7.078125 -20.296875 C 6.929688 -19.921875 6.796875 -19.546875 6.671875 -19.171875 C 6.554688 -18.804688 6.445312 -18.441406 6.34375 -18.078125 C 6.25 -17.679688 6.140625 -17.296875 6.015625 -16.921875 C 5.890625 -16.554688 5.765625 -16.179688 5.640625 -15.796875 C 5.398438 -14.984375 5.148438 -14.171875 4.890625 -13.359375 C 4.628906 -12.546875 4.363281 -11.742188 4.09375 -10.953125 C 3.820312 -10.171875 3.554688 -9.375 3.296875 -8.5625 C 3.046875 -7.75 2.796875 -6.9375 2.546875 -6.125 C 1.859375 -3.957031 1.363281 -1.679688 1.0625 0.703125 C 1.039062 0.828125 1.023438 0.9375 1.015625 1.03125 C 1.003906 1.132812 1 1.222656 1 1.296875 C 1 1.316406 1 1.347656 1 1.390625 C 1 1.441406 1 1.492188 1 1.546875 C 0.96875 1.617188 1.015625 1.65625 1.140625 1.65625 C 1.265625 1.65625 1.335938 1.617188 1.359375 1.546875 C 1.410156 1.453125 1.445312 1.390625 1.46875 1.359375 C 1.519531 1.265625 1.5625 1.171875 1.59375 1.078125 C 1.632812 0.992188 1.679688 0.90625 1.734375 0.8125 C 1.785156 0.707031 1.828125 0.613281 1.859375 0.53125 C 1.898438 0.445312 1.929688 0.359375 1.953125 0.265625 C 2.148438 -0.203125 2.359375 -0.664062 2.578125 -1.125 C 2.804688 -1.582031 3.015625 -2.046875 3.203125 -2.515625 C 3.398438 -2.972656 3.609375 -3.421875 3.828125 -3.859375 C 4.054688 -4.304688 4.269531 -4.765625 4.46875 -5.234375 C 5.15625 -6.691406 5.957031 -8.222656 6.875 -9.828125 C 7.800781 -11.441406 8.832031 -12.96875 9.96875 -14.40625 C 11.113281 -15.84375 12.351562 -17.003906 13.6875 -17.890625 C 13.738281 -17.910156 13.789062 -17.929688 13.84375 -17.953125 C 13.90625 -17.984375 13.960938 -18.015625 14.015625 -18.046875 C 14.066406 -18.066406 14.125 -18.082031 14.1875 -18.09375 C 14.25 -18.101562 14.300781 -18.125 14.34375 -18.15625 C 14.613281 -18.15625 14.84375 -18.101562 15.03125 -18 C 15.21875 -17.90625 15.347656 -17.707031 15.421875 -17.40625 C 15.472656 -17.132812 15.488281 -16.851562 15.46875 -16.5625 C 15.457031 -16.269531 15.429688 -15.988281 15.390625 -15.71875 C 15.265625 -15.070312 15.109375 -14.429688 14.921875 -13.796875 C 14.734375 -13.160156 14.539062 -12.519531 14.34375 -11.875 C 14.070312 -11.0625 13.820312 -10.253906 13.59375 -9.453125 C 13.363281 -8.660156 13.148438 -7.847656 12.953125 -7.015625 C 12.847656 -6.617188 12.757812 -6.222656 12.6875 -5.828125 C 12.613281 -5.429688 12.578125 -5.023438 12.578125 -4.609375 C 12.578125 -4.410156 12.628906 -4.273438 12.734375 -4.203125 C 12.753906 -4.179688 12.800781 -4.171875 12.875 -4.171875 C 13 -4.171875 13.097656 -4.234375 13.171875 -4.359375 C 13.367188 -4.578125 13.566406 -4.796875 13.765625 -5.015625 C 13.960938 -5.234375 14.144531 -5.46875 14.3125 -5.71875 C 14.78125 -6.332031 15.234375 -6.925781 15.671875 -7.5 C 16.117188 -8.082031 16.601562 -8.65625 17.125 -9.21875 C 17.507812 -9.707031 17.988281 -10.203125 18.5625 -10.703125 C 18.875 -10.992188 19.226562 -11.148438 19.625 -11.171875 C 20.21875 -11.171875 20.617188 -10.988281 20.828125 -10.625 C 21.035156 -10.257812 21.1875 -9.828125 21.28125 -9.328125 L 21.734375 -6.09375 C 21.804688 -5.75 21.894531 -5.332031 22 -4.84375 C 22.113281 -4.363281 22.28125 -3.945312 22.5 -3.59375 C 22.71875 -3.238281 23.023438 -3.0625 23.421875 -3.0625 C 23.765625 -3.0625 24.132812 -3.222656 24.53125 -3.546875 C 24.632812 -3.617188 24.78125 -3.765625 24.96875 -3.984375 C 25.164062 -4.203125 25.398438 -4.507812 25.671875 -4.90625 C 25.941406 -5.300781 26.257812 -5.75 26.625 -6.25 C 27 -6.757812 27.421875 -7.320312 27.890625 -7.9375 C 28.015625 -8.050781 28.113281 -8.125 28.1875 -8.15625 C 28.207031 -8.175781 28.269531 -8.1875 28.375 -8.1875 C 28.488281 -8.1875 28.570312 -8.160156 28.625 -8.109375 C 28.769531 -8.035156 28.832031 -7.914062 28.8125 -7.75 C 28.738281 -7.53125 28.507812 -7.148438 28.125 -6.609375 C 27.75 -6.066406 27.3125 -5.488281 26.8125 -4.875 C 26.320312 -4.257812 25.851562 -3.71875 25.40625 -3.25 C 24.96875 -2.78125 24.648438 -2.484375 24.453125 -2.359375 C 23.984375 -2.160156 23.617188 -2.0625 23.359375 -2.0625 C 22.816406 -2.0625 22.332031 -2.335938 21.90625 -2.890625 C 21.488281 -3.441406 21.21875 -3.976562 21.09375 -4.5 C 21.050781 -4.75 21.007812 -4.984375 20.96875 -5.203125 C 20.9375 -5.421875 20.894531 -5.65625 20.84375 -5.90625 C 20.820312 -6.125 20.789062 -6.34375 20.75 -6.5625 C 20.71875 -6.789062 20.675781 -7.015625 20.625 -7.234375 C 20.59375 -7.398438 20.566406 -7.5625 20.546875 -7.71875 C 20.523438 -7.882812 20.5 -8.054688 20.46875 -8.234375 C 20.445312 -8.378906 20.421875 -8.523438 20.390625 -8.671875 C 20.367188 -8.816406 20.347656 -8.976562 20.328125 -9.15625 C 20.273438 -9.320312 20.210938 -9.535156 20.140625 -9.796875 C 20.066406 -10.054688 19.921875 -10.1875 19.703125 -10.1875 C 19.597656 -10.1875 19.445312 -10.125 19.25 -10 C 19.082031 -9.894531 18.910156 -9.757812 18.734375 -9.59375 C 18.585938 -9.414062 18.429688 -9.253906 18.265625 -9.109375 C 17.234375 -7.984375 16.273438 -6.789062 15.390625 -5.53125 C 15.210938 -5.289062 15.019531 -5.046875 14.8125 -4.796875 C 14.601562 -4.546875 14.398438 -4.285156 14.203125 -4.015625 C 13.878906 -3.628906 13.546875 -3.335938 13.203125 -3.140625 C 12.984375 -2.992188 12.765625 -2.921875 12.546875 -2.921875 C 12.078125 -2.921875 11.789062 -3.226562 11.6875 -3.84375 C 11.644531 -4.03125 11.632812 -4.175781 11.65625 -4.28125 C 11.65625 -4.476562 11.644531 -4.613281 11.625 -4.6875 C 11.664062 -5.320312 11.742188 -5.925781 11.859375 -6.5 C 11.972656 -7.082031 12.101562 -7.660156 12.25 -8.234375 C 12.46875 -9.015625 12.695312 -9.804688 12.9375 -10.609375 C 13.1875 -11.410156 13.4375 -12.203125 13.6875 -12.984375 C 13.832031 -13.472656 13.972656 -13.96875 14.109375 -14.46875 C 14.242188 -14.976562 14.347656 -15.492188 14.421875 -16.015625 C 14.472656 -16.160156 14.5 -16.296875 14.5 -16.421875 C 14.5 -16.492188 14.5 -16.566406 14.5 -16.640625 C 14.5 -16.710938 14.5 -16.785156 14.5 -16.859375 C 14.5 -16.953125 14.4375 -17 14.3125 -17 L 14.234375 -17 C 14.191406 -16.976562 14.140625 -16.953125 14.078125 -16.921875 C 14.015625 -16.898438 13.957031 -16.878906 13.90625 -16.859375 C 13.851562 -16.835938 13.800781 -16.804688 13.75 -16.765625 C 13.707031 -16.734375 13.660156 -16.703125 13.609375 -16.671875 C 12.578125 -15.890625 11.585938 -14.898438 10.640625 -13.703125 C 9.691406 -12.515625 8.820312 -11.257812 8.03125 -9.9375 C 7.25 -8.625 6.578125 -7.378906 6.015625 -6.203125 C 5.765625 -5.679688 5.519531 -5.160156 5.28125 -4.640625 C 5.050781 -4.128906 4.816406 -3.613281 4.578125 -3.09375 C 4.328125 -2.550781 4.078125 -2.019531 3.828125 -1.5 C 3.585938 -0.988281 3.34375 -0.460938 3.09375 0.078125 C 3 0.316406 2.894531 0.546875 2.78125 0.765625 C 2.675781 0.992188 2.570312 1.226562 2.46875 1.46875 C 2.25 1.9375 2.015625 2.40625 1.765625 2.875 C 1.597656 3.25 1.378906 3.582031 1.109375 3.875 C 0.960938 4.019531 0.800781 4.09375 0.625 4.09375 Z M 0.625 4.09375 "/></g></g></g><g fill="#f48d3f" fill-opacity="1"><g transform="translate(130.671568, 203.090187)"><g><path d="M 1.734375 -1.546875 C 0.722656 -1.546875 0.0976562 -2.003906 -0.140625 -2.921875 C -0.222656 -3.109375 -0.285156 -3.3125 -0.328125 -3.53125 C -0.378906 -3.757812 -0.394531 -3.972656 -0.375 -4.171875 C -0.394531 -4.484375 -0.375 -4.773438 -0.3125 -5.046875 C -0.25 -5.316406 -0.179688 -5.585938 -0.109375 -5.859375 C 0.109375 -6.453125 0.40625 -7.085938 0.78125 -7.765625 C 1.164062 -8.441406 1.625 -9.035156 2.15625 -9.546875 C 2.6875 -10.066406 3.269531 -10.378906 3.90625 -10.484375 C 3.976562 -10.484375 4.03125 -10.492188 4.0625 -10.515625 C 4.082031 -10.515625 4.101562 -10.515625 4.125 -10.515625 C 4.15625 -10.515625 4.179688 -10.515625 4.203125 -10.515625 C 4.578125 -10.515625 4.867188 -10.390625 5.078125 -10.140625 C 5.285156 -9.898438 5.363281 -9.570312 5.3125 -9.15625 C 5.21875 -8.5625 4.925781 -7.945312 4.4375 -7.3125 C 3.957031 -6.6875 3.398438 -6.160156 2.765625 -5.734375 C 2.128906 -5.304688 1.515625 -5.054688 0.921875 -4.984375 C 0.742188 -4.929688 0.644531 -4.816406 0.625 -4.640625 C 0.53125 -4.253906 0.566406 -3.828125 0.734375 -3.359375 C 0.804688 -2.941406 0.945312 -2.695312 1.15625 -2.625 C 1.363281 -2.550781 1.640625 -2.515625 1.984375 -2.515625 C 2.722656 -2.660156 3.476562 -2.984375 4.25 -3.484375 C 5.03125 -3.992188 5.691406 -4.492188 6.234375 -4.984375 C 6.453125 -5.179688 6.671875 -5.390625 6.890625 -5.609375 C 7.117188 -5.828125 7.34375 -6.035156 7.5625 -6.234375 C 7.757812 -6.429688 7.96875 -6.632812 8.1875 -6.84375 C 8.40625 -7.050781 8.628906 -7.253906 8.859375 -7.453125 C 8.898438 -7.503906 8.957031 -7.554688 9.03125 -7.609375 C 9.113281 -7.671875 9.175781 -7.726562 9.21875 -7.78125 C 9.269531 -7.832031 9.328125 -7.890625 9.390625 -7.953125 C 9.453125 -8.015625 9.503906 -8.066406 9.546875 -8.109375 C 9.671875 -8.191406 9.769531 -8.234375 9.84375 -8.234375 C 9.945312 -8.234375 10.035156 -8.191406 10.109375 -8.109375 C 10.304688 -7.941406 10.34375 -7.757812 10.21875 -7.5625 C 10.195312 -7.488281 10.097656 -7.363281 9.921875 -7.1875 C 9.484375 -6.726562 8.929688 -6.175781 8.265625 -5.53125 C 7.597656 -4.894531 6.882812 -4.273438 6.125 -3.671875 C 5.363281 -3.066406 4.597656 -2.5625 3.828125 -2.15625 C 3.066406 -1.75 2.367188 -1.546875 1.734375 -1.546875 Z M 1.40625 -6.09375 C 1.71875 -6.257812 2.101562 -6.515625 2.5625 -6.859375 C 3.019531 -7.203125 3.425781 -7.578125 3.78125 -7.984375 C 4.132812 -8.390625 4.3125 -8.789062 4.3125 -9.1875 C 4.289062 -9.425781 4.179688 -9.523438 3.984375 -9.484375 C 3.585938 -9.429688 3.191406 -9.21875 2.796875 -8.84375 C 2.410156 -8.476562 2.066406 -8.0625 1.765625 -7.59375 C 1.472656 -7.132812 1.253906 -6.707031 1.109375 -6.3125 C 1.109375 -6.1875 1.132812 -6.125 1.1875 -6.125 C 1.300781 -6.070312 1.375 -6.0625 1.40625 -6.09375 Z M 1.40625 -6.09375 "/></g></g></g><g fill="#f48d3f" fill-opacity="1"><g transform="translate(139.08262, 203.090187)"><g><path d="M -0.109375 0.625 C -0.128906 0.625 -0.144531 0.625 -0.15625 0.625 C -0.175781 0.625 -0.195312 0.625 -0.21875 0.625 C -0.21875 0.601562 -0.242188 0.59375 -0.296875 0.59375 C -0.535156 0.519531 -0.679688 0.332031 -0.734375 0.03125 C -0.734375 -0.0390625 -0.734375 -0.113281 -0.734375 -0.1875 C -0.734375 -0.257812 -0.75 -0.34375 -0.78125 -0.4375 C -0.78125 -0.507812 -0.78125 -0.582031 -0.78125 -0.65625 C -0.78125 -0.738281 -0.765625 -0.828125 -0.734375 -0.921875 C -0.492188 -2.566406 -0.128906 -4.050781 0.359375 -5.375 C 0.859375 -6.707031 1.425781 -8.113281 2.0625 -9.59375 C 2.113281 -9.6875 2.160156 -9.773438 2.203125 -9.859375 C 2.253906 -9.953125 2.304688 -10.035156 2.359375 -10.109375 C 2.429688 -10.179688 2.539062 -10.21875 2.6875 -10.21875 L 2.796875 -10.21875 C 2.992188 -10.144531 3.082031 -10.019531 3.0625 -9.84375 C 3.0625 -9.625 3 -9.351562 2.875 -9.03125 C 2.726562 -8.664062 2.570312 -8.296875 2.40625 -7.921875 C 2.25 -7.554688 2.085938 -7.191406 1.921875 -6.828125 C 1.671875 -6.253906 1.445312 -5.6875 1.25 -5.125 C 1.050781 -4.5625 0.878906 -4 0.734375 -3.4375 C 0.679688 -3.238281 0.632812 -3.039062 0.59375 -2.84375 C 0.5625 -2.644531 0.597656 -2.445312 0.703125 -2.25 L 0.65625 -2.25 L 0.703125 -2.21875 L 2.140625 -5.125 C 2.429688 -5.6875 2.796875 -6.253906 3.234375 -6.828125 C 3.679688 -7.410156 4.191406 -7.878906 4.765625 -8.234375 C 4.910156 -8.304688 5.054688 -8.34375 5.203125 -8.34375 C 5.492188 -8.34375 5.726562 -8.191406 5.90625 -7.890625 C 5.945312 -7.847656 5.988281 -7.785156 6.03125 -7.703125 C 6.070312 -7.628906 6.101562 -7.554688 6.125 -7.484375 C 6.144531 -7.335938 6.207031 -7.191406 6.3125 -7.046875 C 6.582031 -6.597656 6.875 -6.375 7.1875 -6.375 C 7.414062 -6.375 7.6875 -6.472656 8 -6.671875 C 8.320312 -6.867188 8.648438 -7.085938 8.984375 -7.328125 C 9.316406 -7.578125 9.582031 -7.789062 9.78125 -7.96875 C 9.925781 -8.113281 10.082031 -8.238281 10.25 -8.34375 C 10.28125 -8.363281 10.332031 -8.375 10.40625 -8.375 C 10.5 -8.375 10.597656 -8.335938 10.703125 -8.265625 C 10.847656 -8.117188 10.882812 -7.972656 10.8125 -7.828125 C 10.707031 -7.628906 10.597656 -7.46875 10.484375 -7.34375 C 10.253906 -7.125 9.941406 -6.859375 9.546875 -6.546875 C 9.160156 -6.242188 8.753906 -5.976562 8.328125 -5.75 C 7.910156 -5.53125 7.53125 -5.421875 7.1875 -5.421875 C 6.570312 -5.421875 6.070312 -5.691406 5.6875 -6.234375 C 5.632812 -6.304688 5.582031 -6.378906 5.53125 -6.453125 C 5.476562 -6.523438 5.429688 -6.597656 5.390625 -6.671875 C 5.359375 -6.742188 5.316406 -6.816406 5.265625 -6.890625 C 5.222656 -6.972656 5.175781 -7.050781 5.125 -7.125 C 4.957031 -7.125 4.828125 -7.085938 4.734375 -7.015625 C 4.648438 -6.941406 4.570312 -6.851562 4.5 -6.75 C 4.15625 -6.40625 3.847656 -6.03125 3.578125 -5.625 C 3.304688 -5.21875 3.0625 -4.804688 2.84375 -4.390625 C 2.695312 -4.097656 2.546875 -3.800781 2.390625 -3.5 C 2.242188 -3.207031 2.109375 -2.914062 1.984375 -2.625 C 1.835938 -2.320312 1.691406 -2.023438 1.546875 -1.734375 C 1.398438 -1.441406 1.238281 -1.132812 1.0625 -0.8125 C 0.96875 -0.613281 0.863281 -0.421875 0.75 -0.234375 C 0.644531 -0.0546875 0.53125 0.128906 0.40625 0.328125 C 0.28125 0.523438 0.109375 0.625 -0.109375 0.625 Z M -0.109375 0.625 "/></g></g></g><g fill="#f48d3f" fill-opacity="1"><g transform="translate(148.083912, 203.090187)"><g><path d="M 2.328125 -1.515625 C 1.296875 -1.515625 0.578125 -1.789062 0.171875 -2.34375 C -0.234375 -2.894531 -0.414062 -3.566406 -0.375 -4.359375 C -0.375 -4.472656 -0.363281 -4.570312 -0.34375 -4.65625 C -0.332031 -4.75 -0.316406 -4.84375 -0.296875 -4.9375 C -0.0234375 -5.976562 0.359375 -6.925781 0.859375 -7.78125 C 1.367188 -8.644531 2.03125 -9.429688 2.84375 -10.140625 C 3.28125 -10.515625 3.734375 -10.703125 4.203125 -10.703125 C 4.546875 -10.703125 4.894531 -10.601562 5.25 -10.40625 C 5.613281 -10.207031 5.816406 -9.910156 5.859375 -9.515625 C 6.015625 -8.578125 5.769531 -7.71875 5.125 -6.9375 C 5.070312 -6.863281 4.972656 -6.800781 4.828125 -6.75 C 4.804688 -6.75 4.796875 -6.75 4.796875 -6.75 C 4.796875 -6.726562 4.785156 -6.71875 4.765625 -6.71875 C 4.585938 -6.71875 4.5 -6.789062 4.5 -6.9375 C 4.476562 -7.0625 4.503906 -7.179688 4.578125 -7.296875 C 4.597656 -7.347656 4.617188 -7.40625 4.640625 -7.46875 C 4.671875 -7.53125 4.695312 -7.585938 4.71875 -7.640625 C 4.84375 -7.835938 4.9375 -8.050781 5 -8.28125 C 5.0625 -8.507812 5.066406 -8.75 5.015625 -9 C 4.960938 -9.488281 4.726562 -9.734375 4.3125 -9.734375 C 4.113281 -9.734375 3.921875 -9.675781 3.734375 -9.5625 C 3.554688 -9.457031 3.40625 -9.34375 3.28125 -9.21875 C 1.976562 -8.0625 1.101562 -6.597656 0.65625 -4.828125 C 0.238281 -3.234375 0.796875 -2.4375 2.328125 -2.4375 C 2.421875 -2.4375 2.492188 -2.445312 2.546875 -2.46875 C 2.597656 -2.46875 2.640625 -2.46875 2.671875 -2.46875 C 2.710938 -2.46875 2.742188 -2.46875 2.765625 -2.46875 C 3.628906 -2.59375 4.488281 -2.878906 5.34375 -3.328125 C 6.207031 -3.785156 6.984375 -4.25 7.671875 -4.71875 C 7.992188 -4.96875 8.304688 -5.21875 8.609375 -5.46875 C 8.921875 -5.726562 9.234375 -5.984375 9.546875 -6.234375 C 9.867188 -6.484375 10.179688 -6.726562 10.484375 -6.96875 C 10.796875 -7.21875 11.113281 -7.460938 11.4375 -7.703125 C 11.488281 -7.753906 11.539062 -7.804688 11.59375 -7.859375 C 11.65625 -7.910156 11.710938 -7.957031 11.765625 -8 C 11.816406 -8.050781 11.875 -8.09375 11.9375 -8.125 C 12 -8.164062 12.050781 -8.203125 12.09375 -8.234375 C 12.25 -8.273438 12.328125 -8.296875 12.328125 -8.296875 C 12.472656 -8.296875 12.582031 -8.234375 12.65625 -8.109375 C 12.78125 -7.960938 12.78125 -7.78125 12.65625 -7.5625 C 12.625 -7.507812 12.570312 -7.445312 12.5 -7.375 C 12.476562 -7.351562 12.445312 -7.320312 12.40625 -7.28125 C 12.375 -7.25 12.347656 -7.21875 12.328125 -7.1875 C 11.515625 -6.5 10.691406 -5.820312 9.859375 -5.15625 C 9.035156 -4.5 8.171875 -3.875 7.265625 -3.28125 C 6.503906 -2.789062 5.742188 -2.394531 4.984375 -2.09375 C 4.222656 -1.800781 3.398438 -1.609375 2.515625 -1.515625 Z M 2.328125 -1.515625 "/></g></g></g><g fill="#f48d3f" fill-opacity="1"><g transform="translate(159.003521, 203.090187)"><g><path d="M 4.984375 7.296875 C 4.660156 7.296875 4.398438 7.113281 4.203125 6.75 C 3.878906 6.1875 3.832031 5.632812 4.0625 5.09375 C 4.351562 4.207031 4.71875 3.363281 5.15625 2.5625 C 5.601562 1.757812 6.085938 0.96875 6.609375 0.1875 C 6.847656 -0.207031 7.019531 -0.648438 7.125 -1.140625 C 7.164062 -1.554688 7.210938 -1.96875 7.265625 -2.375 C 7.316406 -2.78125 7.367188 -3.179688 7.421875 -3.578125 C 7.460938 -3.992188 7.515625 -4.40625 7.578125 -4.8125 C 7.640625 -5.21875 7.695312 -5.628906 7.75 -6.046875 L 8.078125 -8.671875 C 8.097656 -8.722656 8.109375 -8.84375 8.109375 -9.03125 C 8.109375 -9.132812 8.070312 -9.1875 8 -9.1875 C 7.925781 -9.238281 7.851562 -9.226562 7.78125 -9.15625 L 7.015625 -8.234375 C 6.398438 -7.460938 5.757812 -6.757812 5.09375 -6.125 C 4.425781 -5.488281 3.6875 -4.898438 2.875 -4.359375 C 2.726562 -4.253906 2.582031 -4.179688 2.4375 -4.140625 C 2.289062 -4.109375 2.140625 -4.082031 1.984375 -4.0625 C 1.492188 -4.0625 1.160156 -4.203125 0.984375 -4.484375 C 0.816406 -4.765625 0.734375 -5.128906 0.734375 -5.578125 C 0.734375 -6.378906 0.847656 -7.226562 1.078125 -8.125 C 1.316406 -9.03125 1.707031 -9.800781 2.25 -10.4375 C 2.375 -10.5625 2.507812 -10.625 2.65625 -10.625 C 2.675781 -10.625 2.703125 -10.617188 2.734375 -10.609375 C 2.773438 -10.597656 2.835938 -10.578125 2.921875 -10.546875 C 3.160156 -10.398438 3.179688 -10.191406 2.984375 -9.921875 C 2.640625 -9.453125 2.382812 -8.953125 2.21875 -8.421875 C 2.0625 -7.898438 1.925781 -7.351562 1.8125 -6.78125 C 1.757812 -6.59375 1.726562 -6.398438 1.71875 -6.203125 C 1.707031 -6.003906 1.703125 -5.804688 1.703125 -5.609375 C 1.648438 -5.265625 1.757812 -5.09375 2.03125 -5.09375 C 2.125 -5.09375 2.242188 -5.128906 2.390625 -5.203125 C 2.492188 -5.253906 2.585938 -5.316406 2.671875 -5.390625 C 2.753906 -5.460938 2.847656 -5.523438 2.953125 -5.578125 C 3.046875 -5.617188 3.132812 -5.675781 3.21875 -5.75 C 3.3125 -5.820312 3.40625 -5.882812 3.5 -5.9375 C 3.96875 -6.28125 4.40625 -6.671875 4.8125 -7.109375 C 5.21875 -7.554688 5.617188 -8.023438 6.015625 -8.515625 C 6.179688 -8.710938 6.347656 -8.921875 6.515625 -9.140625 C 6.691406 -9.367188 6.867188 -9.59375 7.046875 -9.8125 C 7.210938 -10.007812 7.375 -10.21875 7.53125 -10.4375 C 7.695312 -10.65625 7.867188 -10.863281 8.046875 -11.0625 C 8.085938 -11.113281 8.140625 -11.175781 8.203125 -11.25 C 8.265625 -11.320312 8.320312 -11.382812 8.375 -11.4375 C 8.5 -11.5625 8.632812 -11.625 8.78125 -11.625 C 8.800781 -11.625 8.8125 -11.625 8.8125 -11.625 C 8.8125 -11.625 8.828125 -11.625 8.859375 -11.625 C 8.878906 -11.59375 8.898438 -11.578125 8.921875 -11.578125 C 9.242188 -11.503906 9.359375 -11.160156 9.265625 -10.546875 C 9.210938 -10.078125 9.15625 -9.609375 9.09375 -9.140625 C 9.03125 -8.679688 8.972656 -8.21875 8.921875 -7.75 C 8.878906 -7.28125 8.816406 -6.804688 8.734375 -6.328125 C 8.660156 -5.847656 8.601562 -5.375 8.5625 -4.90625 L 8.34375 -2.765625 C 8.363281 -2.765625 8.445312 -2.738281 8.59375 -2.6875 C 8.9375 -3.132812 9.285156 -3.578125 9.640625 -4.015625 C 10.003906 -4.460938 10.359375 -4.90625 10.703125 -5.34375 C 11.046875 -5.757812 11.394531 -6.1875 11.75 -6.625 C 12.101562 -7.070312 12.476562 -7.507812 12.875 -7.9375 C 13 -8.082031 13.132812 -8.21875 13.28125 -8.34375 C 13.40625 -8.414062 13.503906 -8.453125 13.578125 -8.453125 C 13.671875 -8.453125 13.753906 -8.414062 13.828125 -8.34375 C 14.003906 -8.164062 14.039062 -7.992188 13.9375 -7.828125 C 13.84375 -7.648438 13.726562 -7.488281 13.59375 -7.34375 C 13.457031 -7.195312 13.328125 -7.035156 13.203125 -6.859375 C 12.421875 -5.953125 11.65625 -5.023438 10.90625 -4.078125 C 10.15625 -3.128906 9.421875 -2.164062 8.703125 -1.1875 C 8.140625 -0.46875 7.785156 0.320312 7.640625 1.1875 C 7.585938 1.53125 7.488281 2.035156 7.34375 2.703125 C 7.195312 3.378906 7.007812 4.066406 6.78125 4.765625 C 6.5625 5.472656 6.296875 6.070312 5.984375 6.5625 C 5.679688 7.050781 5.347656 7.296875 4.984375 7.296875 Z M 5.125 5.90625 C 5.226562 5.90625 5.289062 5.867188 5.3125 5.796875 C 5.332031 5.722656 5.367188 5.632812 5.421875 5.53125 L 5.96875 3.953125 C 6.09375 3.609375 6.082031 3.3125 5.9375 3.0625 C 5.863281 3.226562 5.785156 3.410156 5.703125 3.609375 C 5.617188 3.804688 5.523438 4.003906 5.421875 4.203125 L 4.984375 5.3125 C 4.929688 5.40625 4.898438 5.507812 4.890625 5.625 C 4.878906 5.738281 4.921875 5.816406 5.015625 5.859375 C 5.035156 5.890625 5.070312 5.90625 5.125 5.90625 Z M 5.125 5.90625 "/></g></g></g><g fill="#f48d3f" fill-opacity="1"><g transform="translate(171.177401, 203.090187)"><g/></g></g><g fill="#f48d3f" fill-opacity="1"><g transform="translate(185.195818, 203.090187)"><g><path d="M 1.140625 3.5 C 0.816406 3.5 0.5625 3.351562 0.375 3.0625 L 0.265625 2.84375 C -0.160156 1.65625 -0.0859375 0.488281 0.484375 -0.65625 C 0.597656 -0.851562 0.71875 -0.984375 0.84375 -1.046875 C 0.96875 -1.109375 1.140625 -1.140625 1.359375 -1.140625 C 1.585938 -1.066406 1.722656 -0.929688 1.765625 -0.734375 C 1.796875 -0.640625 1.773438 -0.570312 1.703125 -0.53125 C 1.628906 -0.5 1.550781 -0.46875 1.46875 -0.4375 C 1.226562 -0.414062 1.070312 -0.257812 1 0.03125 C 0.800781 0.695312 0.773438 1.410156 0.921875 2.171875 C 0.941406 2.347656 1.039062 2.4375 1.21875 2.4375 C 1.3125 2.4375 1.394531 2.398438 1.46875 2.328125 C 1.625 2.179688 1.773438 2.015625 1.921875 1.828125 C 2.066406 1.640625 2.222656 1.4375 2.390625 1.21875 C 2.640625 0.894531 2.867188 0.570312 3.078125 0.25 C 3.285156 -0.0625 3.488281 -0.378906 3.6875 -0.703125 C 3.882812 -1.023438 4.070312 -1.347656 4.25 -1.671875 C 4.4375 -2.003906 4.628906 -2.332031 4.828125 -2.65625 L 9.265625 -10.296875 C 9.285156 -10.367188 9.34375 -10.476562 9.4375 -10.625 C 9.507812 -10.75 9.546875 -10.882812 9.546875 -11.03125 C 8.441406 -11.5 7.300781 -11.734375 6.125 -11.734375 C 5.800781 -11.734375 5.539062 -11.71875 5.34375 -11.6875 C 5.144531 -11.664062 4.910156 -11.59375 4.640625 -11.46875 C 4.023438 -11.175781 3.988281 -10.796875 4.53125 -10.328125 C 4.582031 -10.273438 4.632812 -10.25 4.6875 -10.25 C 4.6875 -10.25 4.710938 -10.226562 4.765625 -10.1875 C 4.835938 -10.113281 4.847656 -10.035156 4.796875 -9.953125 C 4.796875 -9.953125 4.773438 -9.945312 4.734375 -9.9375 C 4.703125 -9.925781 4.660156 -9.894531 4.609375 -9.84375 C 4.191406 -9.84375 3.875 -10.039062 3.65625 -10.4375 C 3.457031 -10.882812 3.503906 -11.265625 3.796875 -11.578125 C 4.066406 -11.921875 4.4375 -12.15625 4.90625 -12.28125 C 5.375 -12.40625 5.816406 -12.46875 6.234375 -12.46875 C 6.359375 -12.46875 6.492188 -12.460938 6.640625 -12.453125 C 6.785156 -12.441406 6.921875 -12.421875 7.046875 -12.390625 C 7.242188 -12.367188 7.453125 -12.335938 7.671875 -12.296875 C 7.890625 -12.265625 8.097656 -12.222656 8.296875 -12.171875 C 8.492188 -12.148438 8.703125 -12.113281 8.921875 -12.0625 C 9.148438 -12.007812 9.359375 -11.960938 9.546875 -11.921875 C 9.671875 -11.890625 9.769531 -11.867188 9.84375 -11.859375 C 9.914062 -11.847656 9.96875 -11.84375 10 -11.84375 C 10.125 -11.84375 10.296875 -12.003906 10.515625 -12.328125 C 10.785156 -12.710938 11.046875 -13.097656 11.296875 -13.484375 C 11.554688 -13.867188 11.8125 -14.253906 12.0625 -14.640625 C 12.332031 -15.035156 12.585938 -15.421875 12.828125 -15.796875 C 13.078125 -16.179688 13.328125 -16.570312 13.578125 -16.96875 C 13.742188 -17.238281 14.019531 -17.625 14.40625 -18.125 C 14.789062 -18.632812 15.210938 -19.164062 15.671875 -19.71875 C 16.140625 -20.269531 16.585938 -20.765625 17.015625 -21.203125 C 17.453125 -21.648438 17.816406 -21.945312 18.109375 -22.09375 C 18.304688 -22.144531 18.40625 -22.171875 18.40625 -22.171875 C 18.726562 -22.171875 18.960938 -22.007812 19.109375 -21.6875 C 19.203125 -21.46875 19.242188 -21.25 19.234375 -21.03125 C 19.222656 -20.8125 19.191406 -20.601562 19.140625 -20.40625 C 18.992188 -19.539062 18.835938 -18.753906 18.671875 -18.046875 C 18.097656 -15.660156 17.582031 -13.296875 17.125 -10.953125 C 16.675781 -8.617188 16.425781 -6.222656 16.375 -3.765625 C 16.351562 -3.273438 16.363281 -2.789062 16.40625 -2.3125 C 16.457031 -1.832031 16.535156 -1.359375 16.640625 -0.890625 C 16.691406 -0.660156 16.773438 -0.335938 16.890625 0.078125 C 17.015625 0.492188 17.1875 0.867188 17.40625 1.203125 C 17.632812 1.535156 17.882812 1.703125 18.15625 1.703125 C 18.269531 1.703125 18.40625 1.664062 18.5625 1.59375 C 18.582031 1.5625 18.640625 1.546875 18.734375 1.546875 C 19.003906 1.546875 19.164062 1.734375 19.21875 2.109375 C 19.238281 2.296875 19.203125 2.46875 19.109375 2.625 C 19.015625 2.789062 18.878906 2.890625 18.703125 2.921875 L 18.484375 2.921875 C 18.265625 2.921875 18.066406 2.867188 17.890625 2.765625 C 17.128906 2.421875 16.539062 1.796875 16.125 0.890625 C 15.90625 0.273438 15.742188 -0.347656 15.640625 -0.984375 C 15.546875 -1.628906 15.484375 -2.273438 15.453125 -2.921875 C 15.410156 -3.847656 15.425781 -4.785156 15.5 -5.734375 C 15.570312 -6.679688 15.671875 -7.625 15.796875 -8.5625 C 15.796875 -8.601562 15.796875 -8.660156 15.796875 -8.734375 C 15.796875 -8.816406 15.804688 -8.878906 15.828125 -8.921875 C 15.847656 -8.972656 15.859375 -9.035156 15.859375 -9.109375 C 15.859375 -9.179688 15.859375 -9.242188 15.859375 -9.296875 C 15.910156 -9.585938 15.765625 -9.734375 15.421875 -9.734375 C 14.734375 -9.765625 14.054688 -9.851562 13.390625 -10 C 12.722656 -10.144531 12.070312 -10.316406 11.4375 -10.515625 C 11.1875 -10.585938 11 -10.625 10.875 -10.625 C 10.6875 -10.625 10.476562 -10.425781 10.25 -10.03125 L 6.71875 -4.015625 C 6.269531 -3.234375 5.820312 -2.46875 5.375 -1.71875 C 4.9375 -0.96875 4.484375 -0.210938 4.015625 0.546875 C 3.847656 0.816406 3.597656 1.1875 3.265625 1.65625 C 2.929688 2.125 2.570312 2.546875 2.1875 2.921875 C 1.8125 3.304688 1.460938 3.5 1.140625 3.5 Z M 15.015625 -10.734375 L 15.265625 -10.734375 C 15.617188 -10.753906 15.84375 -10.800781 15.9375 -10.875 C 16.03125 -10.957031 16.113281 -11.179688 16.1875 -11.546875 C 16.457031 -12.722656 16.726562 -13.90625 17 -15.09375 C 17.269531 -16.289062 17.539062 -17.492188 17.8125 -18.703125 C 17.882812 -18.972656 17.945312 -19.226562 18 -19.46875 C 18.050781 -19.71875 18.101562 -19.976562 18.15625 -20.25 C 18.175781 -20.300781 18.1875 -20.375 18.1875 -20.46875 C 18.1875 -20.519531 18.125 -20.570312 18 -20.625 C 17.90625 -20.644531 17.804688 -20.59375 17.703125 -20.46875 C 17.484375 -20.226562 17.265625 -19.988281 17.046875 -19.75 C 16.828125 -19.519531 16.601562 -19.28125 16.375 -19.03125 C 15.9375 -18.59375 15.519531 -18.078125 15.125 -17.484375 C 14.53125 -16.617188 13.953125 -15.765625 13.390625 -14.921875 C 12.828125 -14.078125 12.257812 -13.222656 11.6875 -12.359375 C 11.664062 -12.335938 11.640625 -12.304688 11.609375 -12.265625 C 11.585938 -12.222656 11.566406 -12.179688 11.546875 -12.140625 C 11.523438 -12.085938 11.492188 -12.035156 11.453125 -11.984375 C 11.421875 -11.941406 11.390625 -11.894531 11.359375 -11.84375 C 11.265625 -11.59375 11.335938 -11.445312 11.578125 -11.40625 C 12.148438 -11.226562 12.71875 -11.070312 13.28125 -10.9375 C 13.84375 -10.800781 14.421875 -10.734375 15.015625 -10.734375 Z M 15.015625 -10.734375 "/></g></g></g><g fill="#f48d3f" fill-opacity="1"><g transform="translate(204.378907, 203.090187)"><g><path d="M -0.078125 1.734375 C -0.273438 1.660156 -0.375 1.535156 -0.375 1.359375 C -0.375 1.242188 -0.363281 1.125 -0.34375 1 C -0.332031 0.875 -0.316406 0.75 -0.296875 0.625 C -0.242188 0.0078125 -0.175781 -0.585938 -0.09375 -1.171875 C -0.0078125 -1.765625 0.0820312 -2.359375 0.1875 -2.953125 C 0.28125 -3.546875 0.375 -4.132812 0.46875 -4.71875 C 0.570312 -5.3125 0.675781 -5.914062 0.78125 -6.53125 C 0.875 -7.164062 1 -7.789062 1.15625 -8.40625 C 1.320312 -9.019531 1.503906 -9.632812 1.703125 -10.25 C 2.265625 -12.25 2.867188 -14.207031 3.515625 -16.125 C 4.171875 -18.039062 4.929688 -19.945312 5.796875 -21.84375 C 5.910156 -22.0625 6.035156 -22.269531 6.171875 -22.46875 C 6.304688 -22.664062 6.453125 -22.863281 6.609375 -23.0625 C 6.703125 -23.226562 6.835938 -23.3125 7.015625 -23.3125 C 7.109375 -23.3125 7.164062 -23.300781 7.1875 -23.28125 C 7.414062 -23.15625 7.503906 -22.945312 7.453125 -22.65625 C 7.429688 -22.28125 7.359375 -21.921875 7.234375 -21.578125 C 6.859375 -20.296875 6.425781 -19.039062 5.9375 -17.8125 C 5.445312 -16.582031 4.941406 -15.351562 4.421875 -14.125 C 4.378906 -14 4.328125 -13.878906 4.265625 -13.765625 C 4.203125 -13.660156 4.144531 -13.546875 4.09375 -13.421875 C 4.039062 -13.304688 3.984375 -13.1875 3.921875 -13.0625 C 3.867188 -12.9375 3.816406 -12.8125 3.765625 -12.6875 C 3.421875 -12.050781 3.078125 -11.222656 2.734375 -10.203125 C 2.390625 -9.179688 2.097656 -8.140625 1.859375 -7.078125 C 1.628906 -6.023438 1.476562 -5.117188 1.40625 -4.359375 C 1.625 -4.378906 1.769531 -4.472656 1.84375 -4.640625 C 1.894531 -4.722656 1.9375 -4.800781 1.96875 -4.875 C 2.007812 -4.945312 2.039062 -5.003906 2.0625 -5.046875 C 2.476562 -5.691406 2.9375 -6.296875 3.4375 -6.859375 C 3.945312 -7.421875 4.523438 -7.9375 5.171875 -8.40625 C 5.285156 -8.476562 5.40625 -8.550781 5.53125 -8.625 C 5.65625 -8.707031 5.78125 -8.785156 5.90625 -8.859375 C 6.175781 -9.003906 6.429688 -9.113281 6.671875 -9.1875 C 6.898438 -9.257812 7.109375 -9.296875 7.296875 -9.296875 C 8.035156 -9.296875 8.421875 -8.84375 8.453125 -7.9375 C 8.492188 -7.6875 8.492188 -7.425781 8.453125 -7.15625 C 8.421875 -7.03125 8.398438 -6.898438 8.390625 -6.765625 C 8.378906 -6.628906 8.363281 -6.5 8.34375 -6.375 C 8.34375 -6.226562 8.328125 -6.132812 8.296875 -6.09375 C 8.273438 -5.988281 8.300781 -5.890625 8.375 -5.796875 L 8.484375 -5.796875 C 8.609375 -5.796875 8.707031 -5.832031 8.78125 -5.90625 C 8.832031 -5.925781 8.875 -5.945312 8.90625 -5.96875 C 8.945312 -6 8.976562 -6.023438 9 -6.046875 C 9.6875 -6.460938 10.390625 -6.847656 11.109375 -7.203125 C 11.835938 -7.566406 12.5625 -7.921875 13.28125 -8.265625 C 13.332031 -8.285156 13.378906 -8.304688 13.421875 -8.328125 C 13.472656 -8.359375 13.535156 -8.382812 13.609375 -8.40625 C 13.640625 -8.4375 13.710938 -8.453125 13.828125 -8.453125 C 14.078125 -8.453125 14.210938 -8.363281 14.234375 -8.1875 C 14.304688 -7.894531 14.222656 -7.695312 13.984375 -7.59375 C 13.878906 -7.550781 13.773438 -7.5 13.671875 -7.4375 C 13.578125 -7.375 13.484375 -7.316406 13.390625 -7.265625 C 13.296875 -7.210938 13.195312 -7.160156 13.09375 -7.109375 C 13 -7.066406 12.898438 -7.019531 12.796875 -6.96875 C 11.367188 -6.28125 9.96875 -5.503906 8.59375 -4.640625 C 8.25 -4.421875 7.953125 -4.179688 7.703125 -3.921875 C 7.460938 -3.671875 7.253906 -3.359375 7.078125 -2.984375 C 6.910156 -2.640625 6.632812 -2.210938 6.25 -1.703125 C 5.875 -1.203125 5.460938 -0.75 5.015625 -0.34375 C 4.578125 0.0625 4.144531 0.285156 3.71875 0.328125 C 3.476562 0.359375 3.285156 0.285156 3.140625 0.109375 C 2.992188 -0.0546875 2.941406 -0.265625 2.984375 -0.515625 C 3.085938 -0.929688 3.320312 -1.351562 3.6875 -1.78125 C 4.0625 -2.21875 4.46875 -2.628906 4.90625 -3.015625 C 5.351562 -3.410156 5.734375 -3.734375 6.046875 -3.984375 C 6.640625 -4.398438 7.007812 -4.953125 7.15625 -5.640625 C 7.25 -5.984375 7.332031 -6.332031 7.40625 -6.6875 C 7.488281 -7.050781 7.515625 -7.414062 7.484375 -7.78125 C 7.484375 -8.101562 7.347656 -8.265625 7.078125 -8.265625 C 6.960938 -8.265625 6.890625 -8.253906 6.859375 -8.234375 C 6.640625 -8.148438 6.4375 -8.050781 6.25 -7.9375 C 6.0625 -7.832031 5.875 -7.71875 5.6875 -7.59375 C 4.257812 -6.507812 3.207031 -5.25 2.53125 -3.8125 C 1.851562 -2.375 1.226562 -0.820312 0.65625 0.84375 C 0.632812 0.894531 0.617188 0.957031 0.609375 1.03125 C 0.597656 1.101562 0.578125 1.164062 0.546875 1.21875 C 0.523438 1.269531 0.507812 1.320312 0.5 1.375 C 0.488281 1.4375 0.46875 1.492188 0.4375 1.546875 C 0.394531 1.671875 0.257812 1.734375 0.03125 1.734375 Z M -0.078125 1.734375 "/></g></g></g><g fill="#f48d3f" fill-opacity="1"><g transform="translate(216.811024, 203.090187)"><g><path d="M 7.828125 -2.84375 C 7.398438 -2.84375 7.085938 -2.976562 6.890625 -3.25 C 6.703125 -3.519531 6.582031 -3.847656 6.53125 -4.234375 C 6.476562 -4.628906 6.453125 -5.015625 6.453125 -5.390625 C 6.484375 -5.515625 6.507812 -5.640625 6.53125 -5.765625 C 6.550781 -5.898438 6.578125 -6.054688 6.609375 -6.234375 C 6.628906 -6.410156 6.644531 -6.582031 6.65625 -6.75 C 6.664062 -6.925781 6.6875 -7.097656 6.71875 -7.265625 C 6.71875 -7.316406 6.722656 -7.363281 6.734375 -7.40625 C 6.742188 -7.457031 6.757812 -7.507812 6.78125 -7.5625 C 6.8125 -7.65625 6.765625 -7.726562 6.640625 -7.78125 L 6.5625 -7.78125 C 6.46875 -7.78125 6.394531 -7.742188 6.34375 -7.671875 C 6.320312 -7.648438 6.289062 -7.617188 6.25 -7.578125 C 6.21875 -7.546875 6.1875 -7.515625 6.15625 -7.484375 C 6.0625 -7.390625 5.976562 -7.304688 5.90625 -7.234375 C 5.832031 -7.160156 5.757812 -7.070312 5.6875 -6.96875 C 5.582031 -6.875 5.488281 -6.789062 5.40625 -6.71875 C 5.320312 -6.644531 5.226562 -6.554688 5.125 -6.453125 C 4.632812 -5.960938 4.085938 -5.457031 3.484375 -4.9375 C 2.878906 -4.425781 2.257812 -4.035156 1.625 -3.765625 C 1.550781 -3.734375 1.484375 -3.710938 1.421875 -3.703125 C 1.359375 -3.691406 1.300781 -3.6875 1.25 -3.6875 C 0.78125 -3.6875 0.507812 -3.929688 0.4375 -4.421875 C 0.363281 -4.617188 0.351562 -4.90625 0.40625 -5.28125 C 0.5 -5.988281 0.648438 -6.6875 0.859375 -7.375 C 1.078125 -8.0625 1.367188 -8.726562 1.734375 -9.375 L 2.03125 -9.78125 C 2.175781 -9.925781 2.3125 -10 2.4375 -10 C 2.5625 -10 2.660156 -9.960938 2.734375 -9.890625 C 2.953125 -9.710938 2.972656 -9.503906 2.796875 -9.265625 C 2.753906 -9.160156 2.703125 -9.054688 2.640625 -8.953125 C 2.578125 -8.859375 2.507812 -8.75 2.4375 -8.625 C 2.164062 -8.113281 1.941406 -7.582031 1.765625 -7.03125 C 1.597656 -6.476562 1.460938 -5.90625 1.359375 -5.3125 C 1.359375 -5.289062 1.359375 -5.257812 1.359375 -5.21875 C 1.359375 -5.1875 1.359375 -5.144531 1.359375 -5.09375 C 1.359375 -4.988281 1.410156 -4.925781 1.515625 -4.90625 C 1.535156 -4.882812 1.582031 -4.875 1.65625 -4.875 C 1.726562 -4.875 1.828125 -4.921875 1.953125 -5.015625 C 2.054688 -5.085938 2.15625 -5.160156 2.25 -5.234375 C 2.34375 -5.304688 2.441406 -5.378906 2.546875 -5.453125 C 2.640625 -5.503906 2.726562 -5.566406 2.8125 -5.640625 C 2.90625 -5.710938 3 -5.785156 3.09375 -5.859375 C 3.738281 -6.398438 4.34375 -6.96875 4.90625 -7.5625 C 5.46875 -8.15625 6.019531 -8.769531 6.5625 -9.40625 C 6.664062 -9.5 6.753906 -9.582031 6.828125 -9.65625 C 6.898438 -9.738281 6.984375 -9.828125 7.078125 -9.921875 C 7.148438 -10.023438 7.226562 -10.113281 7.3125 -10.1875 C 7.40625 -10.257812 7.5 -10.34375 7.59375 -10.4375 C 7.695312 -10.539062 7.796875 -10.59375 7.890625 -10.59375 C 7.921875 -10.59375 8.007812 -10.566406 8.15625 -10.515625 C 8.351562 -10.410156 8.4375 -10.25 8.40625 -10.03125 C 8.382812 -9.9375 8.367188 -9.84375 8.359375 -9.75 C 8.347656 -9.664062 8.328125 -9.585938 8.296875 -9.515625 C 8.273438 -9.421875 8.25 -9.328125 8.21875 -9.234375 C 8.195312 -9.148438 8.175781 -9.0625 8.15625 -8.96875 C 7.976562 -8.425781 7.828125 -7.878906 7.703125 -7.328125 C 7.585938 -6.773438 7.503906 -6.191406 7.453125 -5.578125 C 7.429688 -5.203125 7.429688 -4.832031 7.453125 -4.46875 C 7.503906 -4.019531 7.675781 -3.796875 7.96875 -3.796875 C 8.289062 -3.796875 8.671875 -3.9375 9.109375 -4.21875 C 9.554688 -4.5 10.003906 -4.847656 10.453125 -5.265625 C 10.910156 -5.691406 11.335938 -6.097656 11.734375 -6.484375 C 12.128906 -6.878906 12.4375 -7.203125 12.65625 -7.453125 C 12.875 -7.703125 13.109375 -7.9375 13.359375 -8.15625 C 13.398438 -8.207031 13.457031 -8.234375 13.53125 -8.234375 C 13.632812 -8.234375 13.722656 -8.191406 13.796875 -8.109375 C 13.992188 -7.921875 14.039062 -7.75 13.9375 -7.59375 C 13.894531 -7.5 13.851562 -7.421875 13.8125 -7.359375 C 13.78125 -7.296875 13.738281 -7.238281 13.6875 -7.1875 C 13.269531 -6.695312 12.753906 -6.128906 12.140625 -5.484375 C 11.523438 -4.847656 10.875 -4.28125 10.1875 -3.78125 C 9.5 -3.28125 8.832031 -2.976562 8.1875 -2.875 C 8.113281 -2.851562 7.992188 -2.84375 7.828125 -2.84375 Z M 7.828125 -2.84375 "/></g></g></g><g fill="#f48d3f" fill-opacity="1"><g transform="translate(228.94802, 203.090187)"><g><path d="M 0.65625 2.625 C 0.195312 2.625 -0.109375 2.363281 -0.265625 1.84375 C -0.429688 1.320312 -0.515625 0.851562 -0.515625 0.4375 C -0.515625 -0.738281 -0.363281 -2.046875 -0.0625 -3.484375 C 0.226562 -4.921875 0.585938 -6.335938 1.015625 -7.734375 C 1.441406 -9.140625 1.851562 -10.398438 2.25 -11.515625 C 2.375 -11.859375 2.488281 -12.179688 2.59375 -12.484375 C 2.707031 -12.796875 2.828125 -13.109375 2.953125 -13.421875 C 3.046875 -13.691406 3.070312 -13.882812 3.03125 -14 C 3 -14.113281 2.875 -14.171875 2.65625 -14.171875 L 2.359375 -14.171875 C 2.109375 -14.140625 1.859375 -14.113281 1.609375 -14.09375 C 1.367188 -14.070312 1.128906 -14.035156 0.890625 -13.984375 C 0.640625 -13.953125 0.382812 -13.914062 0.125 -13.875 C -0.132812 -13.84375 -0.382812 -13.816406 -0.625 -13.796875 C -0.769531 -13.773438 -0.921875 -13.75 -1.078125 -13.71875 C -1.242188 -13.695312 -1.398438 -13.6875 -1.546875 -13.6875 C -1.742188 -13.6875 -1.878906 -13.695312 -1.953125 -13.71875 C -2.078125 -13.75 -2.164062 -13.820312 -2.21875 -13.9375 C -2.257812 -14.1875 -2.195312 -14.320312 -2.03125 -14.34375 C -1.925781 -14.375 -1.835938 -14.398438 -1.765625 -14.421875 C -1.691406 -14.453125 -1.617188 -14.476562 -1.546875 -14.5 C -1.453125 -14.519531 -1.359375 -14.535156 -1.265625 -14.546875 C -1.179688 -14.566406 -1.09375 -14.585938 -1 -14.609375 C -0.65625 -14.660156 -0.316406 -14.707031 0.015625 -14.75 C 0.347656 -14.800781 0.675781 -14.835938 1 -14.859375 C 1.34375 -14.910156 1.671875 -14.953125 1.984375 -14.984375 C 2.304688 -15.023438 2.628906 -15.0625 2.953125 -15.09375 C 3.390625 -15.113281 3.695312 -15.320312 3.875 -15.71875 L 4.875 -17.921875 C 4.96875 -18.078125 5.050781 -18.226562 5.125 -18.375 C 5.195312 -18.519531 5.285156 -18.664062 5.390625 -18.8125 C 5.460938 -18.957031 5.539062 -19.101562 5.625 -19.25 C 5.707031 -19.40625 5.800781 -19.554688 5.90625 -19.703125 C 6.175781 -20.140625 6.429688 -20.359375 6.671875 -20.359375 C 6.828125 -20.359375 6.941406 -20.273438 7.015625 -20.109375 C 7.054688 -19.859375 6.992188 -19.585938 6.828125 -19.296875 C 6.628906 -18.804688 6.410156 -18.3125 6.171875 -17.8125 C 5.941406 -17.320312 5.703125 -16.832031 5.453125 -16.34375 C 5.429688 -16.289062 5.40625 -16.226562 5.375 -16.15625 C 5.351562 -16.082031 5.332031 -16.019531 5.3125 -15.96875 C 5.238281 -15.820312 5.203125 -15.648438 5.203125 -15.453125 C 5.296875 -15.429688 5.378906 -15.414062 5.453125 -15.40625 C 5.535156 -15.394531 5.613281 -15.390625 5.6875 -15.390625 C 5.78125 -15.390625 5.851562 -15.398438 5.90625 -15.421875 C 5.945312 -15.421875 5.976562 -15.421875 6 -15.421875 C 6.03125 -15.421875 6.0625 -15.421875 6.09375 -15.421875 C 6.601562 -15.472656 7.132812 -15.523438 7.6875 -15.578125 C 8.238281 -15.640625 8.820312 -15.695312 9.4375 -15.75 C 10.050781 -15.800781 10.632812 -15.847656 11.1875 -15.890625 C 11.75 -15.941406 12.285156 -15.992188 12.796875 -16.046875 L 14.125 -16.046875 C 14.300781 -16.046875 14.398438 -15.921875 14.421875 -15.671875 C 14.421875 -15.484375 14.347656 -15.363281 14.203125 -15.3125 C 14.109375 -15.28125 14.019531 -15.257812 13.9375 -15.25 C 13.863281 -15.238281 13.789062 -15.234375 13.71875 -15.234375 C 13.644531 -15.210938 13.570312 -15.203125 13.5 -15.203125 C 13.425781 -15.203125 13.34375 -15.1875 13.25 -15.15625 L 5.3125 -14.46875 C 4.769531 -14.414062 4.414062 -14.164062 4.25 -13.71875 C 4.019531 -13.25 3.75 -12.578125 3.4375 -11.703125 C 3.132812 -10.835938 2.816406 -9.898438 2.484375 -8.890625 C 2.148438 -7.878906 1.847656 -6.914062 1.578125 -6 C 1.316406 -5.09375 1.125 -4.375 1 -3.84375 C 0.851562 -3.226562 0.734375 -2.617188 0.640625 -2.015625 C 0.554688 -1.410156 0.488281 -0.785156 0.4375 -0.140625 C 0.414062 0.128906 0.398438 0.414062 0.390625 0.71875 C 0.378906 1.03125 0.507812 1.296875 0.78125 1.515625 C 1.050781 1.484375 1.296875 1.359375 1.515625 1.140625 C 1.609375 1.015625 1.695312 0.894531 1.78125 0.78125 C 1.875 0.675781 1.96875 0.578125 2.0625 0.484375 C 2.457031 -0.015625 2.929688 -0.648438 3.484375 -1.421875 C 4.035156 -2.191406 4.597656 -2.984375 5.171875 -3.796875 C 5.753906 -4.609375 6.289062 -5.347656 6.78125 -6.015625 C 7.28125 -6.679688 7.664062 -7.148438 7.9375 -7.421875 C 7.976562 -7.492188 8.035156 -7.566406 8.109375 -7.640625 C 8.191406 -7.710938 8.253906 -7.785156 8.296875 -7.859375 C 8.421875 -7.984375 8.570312 -8.082031 8.75 -8.15625 C 8.769531 -8.15625 8.789062 -8.164062 8.8125 -8.1875 C 8.84375 -8.1875 8.859375 -8.1875 8.859375 -8.1875 C 8.859375 -8.1875 8.867188 -8.1875 8.890625 -8.1875 C 8.910156 -8.1875 9 -8.160156 9.15625 -8.109375 C 9.34375 -7.960938 9.378906 -7.78125 9.265625 -7.5625 C 9.265625 -7.488281 9.226562 -7.414062 9.15625 -7.34375 C 8.78125 -6.894531 8.289062 -6.265625 7.6875 -5.453125 C 7.082031 -4.648438 6.523438 -3.890625 6.015625 -3.171875 C 5.398438 -2.335938 4.769531 -1.492188 4.125 -0.640625 C 3.488281 0.203125 2.875 0.96875 2.28125 1.65625 C 2.113281 1.875 1.875 2.085938 1.5625 2.296875 C 1.257812 2.515625 0.957031 2.625 0.65625 2.625 Z M 0.65625 2.625 "/></g></g></g><g fill="#f48d3f" fill-opacity="1"><g transform="translate(236.363024, 203.090187)"><g><path d="M -0.265625 2.953125 C -0.453125 2.953125 -0.644531 2.890625 -0.84375 2.765625 C -1.144531 2.566406 -1.332031 2.332031 -1.40625 2.0625 C -1.476562 1.789062 -1.488281 1.5 -1.4375 1.1875 C -1.363281 0.832031 -1.175781 0.429688 -0.875 -0.015625 C -0.582031 -0.472656 -0.253906 -0.910156 0.109375 -1.328125 C 0.472656 -1.742188 0.804688 -2.050781 1.109375 -2.25 C 1.378906 -2.46875 1.554688 -2.695312 1.640625 -2.9375 C 1.722656 -3.1875 1.765625 -3.488281 1.765625 -3.84375 C 1.742188 -4.40625 1.695312 -4.957031 1.625 -5.5 C 1.550781 -6.039062 1.453125 -6.59375 1.328125 -7.15625 C 1.273438 -7.40625 1.238281 -7.644531 1.21875 -7.875 C 1.195312 -8.113281 1.171875 -8.351562 1.140625 -8.59375 C 1.085938 -9.425781 1.238281 -10.144531 1.59375 -10.75 C 1.957031 -11.351562 2.457031 -11.890625 3.09375 -12.359375 C 3.46875 -12.578125 3.851562 -12.6875 4.25 -12.6875 C 4.4375 -12.6875 4.59375 -12.671875 4.71875 -12.640625 C 4.84375 -12.617188 4.976562 -12.535156 5.125 -12.390625 C 5.226562 -12.296875 5.257812 -12.1875 5.21875 -12.0625 C 5.1875 -11.9375 5.109375 -11.851562 4.984375 -11.8125 C 4.953125 -11.78125 4.878906 -11.765625 4.765625 -11.765625 C 4.066406 -11.765625 3.457031 -11.519531 2.9375 -11.03125 C 2.425781 -10.539062 2.148438 -9.953125 2.109375 -9.265625 C 2.078125 -9.160156 2.0625 -9.054688 2.0625 -8.953125 C 2.0625 -8.859375 2.0625 -8.765625 2.0625 -8.671875 C 2.0625 -8.566406 2.066406 -8.46875 2.078125 -8.375 C 2.097656 -8.28125 2.117188 -8.179688 2.140625 -8.078125 C 2.265625 -7.410156 2.378906 -6.75 2.484375 -6.09375 C 2.597656 -5.445312 2.679688 -4.789062 2.734375 -4.125 C 2.734375 -4.101562 2.796875 -3.992188 2.921875 -3.796875 C 3.140625 -3.921875 3.320312 -4.03125 3.46875 -4.125 L 8.8125 -7.890625 C 8.9375 -7.941406 9.050781 -8.015625 9.15625 -8.109375 C 9.269531 -8.191406 9.378906 -8.234375 9.484375 -8.234375 C 9.578125 -8.234375 9.660156 -8.191406 9.734375 -8.109375 C 9.960938 -7.921875 9.988281 -7.738281 9.8125 -7.5625 C 9.71875 -7.414062 9.519531 -7.234375 9.21875 -7.015625 C 8.726562 -6.671875 8.25 -6.332031 7.78125 -6 C 7.3125 -5.664062 6.84375 -5.328125 6.375 -4.984375 L 3.3125 -2.796875 C 2.894531 -2.503906 2.648438 -2.113281 2.578125 -1.625 C 2.554688 -1.101562 2.421875 -0.488281 2.171875 0.21875 C 1.929688 0.9375 1.597656 1.570312 1.171875 2.125 C 0.753906 2.675781 0.273438 2.953125 -0.265625 2.953125 Z M -0.1875 1.921875 C -0.0820312 1.921875 0.00390625 1.882812 0.078125 1.8125 C 0.421875 1.539062 0.710938 1.140625 0.953125 0.609375 C 1.203125 0.078125 1.335938 -0.476562 1.359375 -1.0625 C 0.503906 -0.425781 -0.109375 0.34375 -0.484375 1.25 C -0.503906 1.351562 -0.503906 1.441406 -0.484375 1.515625 C -0.484375 1.640625 -0.445312 1.738281 -0.375 1.8125 C -0.320312 1.882812 -0.257812 1.921875 -0.1875 1.921875 Z M -0.1875 1.921875 "/></g></g></g><g fill="#f48d3f" fill-opacity="1"><g transform="translate(244.405165, 203.090187)"><g><path d="M 0.1875 -3.171875 C -0.300781 -3.171875 -0.570312 -3.46875 -0.625 -4.0625 C -0.625 -4.601562 -0.503906 -5.179688 -0.265625 -5.796875 C -0.0351562 -6.410156 0.253906 -7 0.609375 -7.5625 C 0.960938 -8.125 1.328125 -8.59375 1.703125 -8.96875 C 1.796875 -9.09375 1.976562 -9.25 2.25 -9.4375 C 2.644531 -9.757812 3.050781 -9.921875 3.46875 -9.921875 C 3.832031 -9.921875 4.203125 -9.773438 4.578125 -9.484375 C 4.773438 -9.359375 4.882812 -9.296875 4.90625 -9.296875 C 4.976562 -9.296875 5.085938 -9.394531 5.234375 -9.59375 C 5.359375 -9.71875 5.472656 -9.851562 5.578125 -10 C 5.691406 -10.144531 5.800781 -10.289062 5.90625 -10.4375 C 6 -10.582031 6.097656 -10.726562 6.203125 -10.875 C 6.316406 -11.03125 6.425781 -11.179688 6.53125 -11.328125 C 6.582031 -11.378906 6.628906 -11.441406 6.671875 -11.515625 C 6.722656 -11.585938 6.773438 -11.660156 6.828125 -11.734375 C 6.878906 -11.785156 6.921875 -11.847656 6.953125 -11.921875 C 6.992188 -11.992188 7.035156 -12.050781 7.078125 -12.09375 C 7.253906 -12.269531 7.40625 -12.359375 7.53125 -12.359375 C 7.53125 -12.359375 7.601562 -12.332031 7.75 -12.28125 C 7.988281 -12.132812 8.050781 -11.890625 7.9375 -11.546875 C 7.90625 -11.453125 7.867188 -11.363281 7.828125 -11.28125 C 7.796875 -11.207031 7.753906 -11.132812 7.703125 -11.0625 C 7.609375 -10.894531 7.523438 -10.722656 7.453125 -10.546875 C 7.234375 -10.078125 6.972656 -9.5 6.671875 -8.8125 C 6.378906 -8.125 6.128906 -7.429688 5.921875 -6.734375 C 5.710938 -6.035156 5.609375 -5.414062 5.609375 -4.875 C 5.609375 -4.644531 5.679688 -4.53125 5.828125 -4.53125 C 5.898438 -4.53125 5.945312 -4.546875 5.96875 -4.578125 C 6.144531 -4.648438 6.3125 -4.722656 6.46875 -4.796875 C 6.632812 -4.867188 6.800781 -4.953125 6.96875 -5.046875 C 7.1875 -5.203125 7.410156 -5.359375 7.640625 -5.515625 C 7.878906 -5.671875 8.113281 -5.847656 8.34375 -6.046875 C 8.507812 -6.171875 8.664062 -6.304688 8.8125 -6.453125 C 8.957031 -6.597656 9.109375 -6.734375 9.265625 -6.859375 C 9.535156 -7.128906 9.828125 -7.390625 10.140625 -7.640625 C 10.191406 -7.679688 10.25 -7.726562 10.3125 -7.78125 C 10.375 -7.832031 10.429688 -7.882812 10.484375 -7.9375 C 10.523438 -7.976562 10.617188 -8.050781 10.765625 -8.15625 C 10.816406 -8.175781 10.851562 -8.191406 10.875 -8.203125 C 10.90625 -8.222656 10.929688 -8.234375 10.953125 -8.234375 C 11.054688 -8.234375 11.144531 -8.191406 11.21875 -8.109375 C 11.382812 -8.015625 11.429688 -7.832031 11.359375 -7.5625 C 11.335938 -7.539062 11.328125 -7.519531 11.328125 -7.5 C 11.328125 -7.488281 11.3125 -7.472656 11.28125 -7.453125 C 11.257812 -7.429688 11.234375 -7.40625 11.203125 -7.375 C 11.179688 -7.351562 11.160156 -7.328125 11.140625 -7.296875 C 10.796875 -6.953125 10.300781 -6.488281 9.65625 -5.90625 C 9.019531 -5.332031 8.363281 -4.8125 7.6875 -4.34375 C 7.007812 -3.882812 6.414062 -3.601562 5.90625 -3.5 C 5.851562 -3.476562 5.742188 -3.46875 5.578125 -3.46875 C 4.953125 -3.46875 4.640625 -3.820312 4.640625 -4.53125 C 4.640625 -5.03125 4.6875 -5.523438 4.78125 -6.015625 C 4.882812 -6.503906 5 -6.992188 5.125 -7.484375 C 4.851562 -7.359375 4.671875 -7.238281 4.578125 -7.125 C 4.523438 -7.050781 4.460938 -6.972656 4.390625 -6.890625 C 4.316406 -6.816406 4.253906 -6.757812 4.203125 -6.71875 C 3.785156 -6.21875 3.367188 -5.738281 2.953125 -5.28125 C 2.535156 -4.832031 2.09375 -4.398438 1.625 -3.984375 C 1.445312 -3.835938 1.222656 -3.664062 0.953125 -3.46875 C 0.679688 -3.269531 0.425781 -3.171875 0.1875 -3.171875 Z M 0.515625 -4.5 C 0.660156 -4.5 0.769531 -4.535156 0.84375 -4.609375 C 1.4375 -5.097656 1.988281 -5.640625 2.5 -6.234375 C 3.019531 -6.828125 3.523438 -7.429688 4.015625 -8.046875 C 4.046875 -8.066406 4.070312 -8.085938 4.09375 -8.109375 C 4.113281 -8.140625 4.140625 -8.179688 4.171875 -8.234375 C 4.242188 -8.472656 4.191406 -8.644531 4.015625 -8.75 C 3.816406 -8.863281 3.644531 -8.921875 3.5 -8.921875 C 3.375 -8.921875 3.21875 -8.867188 3.03125 -8.765625 C 2.851562 -8.671875 2.71875 -8.578125 2.625 -8.484375 C 1.46875 -7.472656 0.738281 -6.171875 0.4375 -4.578125 L 0.484375 -4.53125 C 0.503906 -4.53125 0.515625 -4.519531 0.515625 -4.5 Z M 0.515625 -4.5 "/></g></g></g></svg>